<svg width="23" height="20" viewBox="0 0 23 20" fill="none" xmlns="http://www.w3.org/2000/svg">
<g clip-path="url(#clip0_538_889)">
<path d="M19.9713 0.708008H3.0288C1.74273 0.708008 0.698975 1.76511 0.698975 3.06761V14.2049C0.698975 15.5074 1.74273 16.5645 3.0288 16.5645H5.80594C5.80594 18.1219 5.02312 18.5844 3.85821 19.1601C3.8023 19.1884 3.81162 19.2828 3.86753 19.2828C4.5758 19.2828 5.18155 19.2828 5.75003 19.2828C7.83755 19.2828 8.91859 17.9331 9.31932 16.5551H19.9713C21.2573 16.5551 22.3011 15.498 22.3011 14.1955V3.06761C22.3011 1.76511 21.2573 0.708008 19.9713 0.708008Z" stroke="white" stroke-width="1.5" stroke-miterlimit="10"/>
<path d="M5.19092 8.57006C5.19092 6.69182 6.61677 5.35156 8.52722 5.35156C9.49643 5.35156 10.3165 5.67247 10.8943 6.26709C10.9875 6.36147 10.9875 6.52193 10.8943 6.61631L10.3165 7.1543C10.2327 7.23925 10.0929 7.23925 9.99967 7.1543C9.60826 6.77676 9.14229 6.57856 8.60178 6.57856C7.4555 6.57856 6.63541 7.3997 6.63541 8.57006C6.63541 9.74042 7.4555 10.5616 8.60178 10.5616C9.15161 10.5616 9.61758 10.3634 9.99967 9.97639C10.0835 9.89144 10.2233 9.89144 10.3165 9.97639L10.8943 10.5144C10.9875 10.5993 10.9968 10.7503 10.913 10.8447C10.3352 11.4582 9.50575 11.7791 8.52722 11.7791C6.61677 11.7791 5.20024 10.4389 5.20024 8.56062L5.19092 8.57006Z" fill="white"/>
<path d="M17.8279 8.57006C17.8279 6.69182 16.402 5.35156 14.4916 5.35156C13.5224 5.35156 12.7023 5.67247 12.1245 6.26709C12.0313 6.36147 12.0313 6.52193 12.1245 6.61631L12.7023 7.1543C12.7861 7.23925 12.9259 7.23925 13.0191 7.1543C13.4105 6.77676 13.8765 6.57856 14.417 6.57856C15.5633 6.57856 16.3834 7.3997 16.3834 8.57006C16.3834 9.74042 15.5633 10.5616 14.417 10.5616C13.8672 10.5616 13.4012 10.3634 13.0191 9.97639C12.9353 9.89144 12.7955 9.89144 12.7023 9.97639L12.1245 10.5144C12.0313 10.5993 12.022 10.7503 12.1058 10.8447C12.6836 11.4582 13.513 11.7791 14.4916 11.7791C16.402 11.7791 17.8186 10.4389 17.8186 8.56062L17.8279 8.57006Z" fill="white"/>
<path d="M13.0376 8.91003C13.2229 8.91003 13.3731 8.75791 13.3731 8.57025C13.3731 8.38259 13.2229 8.23047 13.0376 8.23047C12.8524 8.23047 12.7021 8.38259 12.7021 8.57025C12.7021 8.75791 12.8524 8.91003 13.0376 8.91003Z" fill="white"/>
<path d="M11.5186 8.91003C11.7039 8.91003 11.8541 8.75791 11.8541 8.57025C11.8541 8.38259 11.7039 8.23047 11.5186 8.23047C11.3333 8.23047 11.1831 8.38259 11.1831 8.57025C11.1831 8.75791 11.3333 8.91003 11.5186 8.91003Z" fill="white"/>
<path d="M9.99956 8.91003C10.1848 8.91003 10.3351 8.75791 10.3351 8.57025C10.3351 8.38259 10.1848 8.23047 9.99956 8.23047C9.81427 8.23047 9.66406 8.38259 9.66406 8.57025C9.66406 8.75791 9.81427 8.91003 9.99956 8.91003Z" fill="white"/>
</g>
<defs>
<clipPath id="clip0_538_889">
<rect width="23" height="20" fill="white"/>
</clipPath>
</defs>
</svg>
