<svg width="244" height="65" viewBox="0 0 244 65" fill="none" xmlns="http://www.w3.org/2000/svg">
<g clip-path="url(#clip0_461_126)">
<path d="M76.2727 31.1782C76.2727 18.009 86.5801 8.58398 100.45 8.58398C108.148 8.58398 114.575 11.3309 118.778 16.3217L112.16 22.3141C109.169 18.9439 105.416 17.1943 100.963 17.1943C92.6256 17.1943 86.7117 22.9374 86.7117 31.1737C86.7117 39.41 92.6301 45.1532 100.963 45.1532C105.416 45.1532 109.174 43.4035 112.16 39.971L118.778 45.9634C114.579 51.021 108.152 53.7679 100.387 53.7679C86.5801 53.7679 76.2727 44.3429 76.2727 31.1737V31.1782Z" fill="black"/>
<path d="M121.959 31.1782C121.959 18.009 132.267 8.58398 146.141 8.58398C153.839 8.58398 160.266 11.3309 164.469 16.3217L157.851 22.3141C154.86 18.9439 151.107 17.1943 146.654 17.1943C138.317 17.1943 132.403 22.9374 132.403 31.1737C132.403 39.41 138.321 45.1532 146.654 45.1532C151.107 45.1532 154.865 43.4035 157.851 39.971L164.469 45.9634C160.27 51.021 153.844 53.7679 146.078 53.7679C132.271 53.7679 121.964 44.3429 121.964 31.1737L121.959 31.1782Z" fill="black"/>
<path d="M170.7 6.70996H180.626V53.0247H170.7V6.70996Z" fill="black"/>
<path d="M188.642 9.3319C188.642 6.27334 191.124 3.90039 194.814 3.90039C198.504 3.90039 200.987 6.14868 200.987 9.14491C200.987 12.3905 198.504 14.7634 194.814 14.7634C191.124 14.7634 188.642 12.3905 188.642 9.3319ZM189.849 19.4425H199.775V53.0244H189.849V19.4425Z" fill="black"/>
<path d="M244 33.8008V53.0248H234.074V35.2967C234.074 29.8652 231.528 27.3721 227.139 27.3721C222.369 27.3721 218.928 30.2437 218.928 36.4231V53.0248H209.002V19.443H218.484V23.3741C221.157 20.5026 225.164 18.9443 229.812 18.9443C237.891 18.9443 244 23.5611 244 33.8008Z" fill="black"/>
<g filter="url(#filter0_d_461_126)">
<path d="M51.5096 7.09668H14.1789C10.1382 7.09668 6.86255 10.3098 6.86255 14.2734V50.8915C6.86255 54.8551 10.1382 58.0682 14.1789 58.0682H51.5096C55.5504 58.0682 58.826 54.8551 58.826 50.8915V14.2734C58.826 10.3098 55.5504 7.09668 51.5096 7.09668Z" fill="white"/>
</g>
<path d="M15.6721 31.178C15.6721 26.2318 19.5436 22.6924 24.7495 22.6924C27.6406 22.6924 30.0552 23.7253 31.6302 25.5996L29.143 27.8479C28.0219 26.5835 26.6104 25.9246 24.9401 25.9246C21.8084 25.9246 19.589 28.0794 19.589 31.1735C19.589 34.2677 21.813 36.4225 24.9401 36.4225C26.6104 36.4225 28.0219 35.7681 29.143 34.477L31.6302 36.7253C30.0552 38.6218 27.6406 39.6547 24.7268 39.6547C19.5436 39.6547 15.6721 36.1153 15.6721 31.1691V31.178Z" fill="#0000FF"/>
<path d="M50.021 31.178C50.021 26.2318 46.1495 22.6924 40.9436 22.6924C38.0525 22.6924 35.6379 23.7253 34.063 25.5996L36.5502 27.8479C37.6712 26.5835 39.0828 25.9246 40.7576 25.9246C43.8892 25.9246 46.1087 28.0794 46.1087 31.1735C46.1087 34.2677 43.8847 36.4225 40.7576 36.4225C39.0828 36.4225 37.6758 35.7681 36.5502 34.477L34.063 36.7253C35.6379 38.6218 38.0525 39.6547 40.9663 39.6547C46.1495 39.6547 50.021 36.1153 50.021 31.1691V31.178Z" fill="#FFDA00"/>
<path d="M42.3007 30.5547H23.0566V31.7968H42.3007V30.5547Z" fill="black"/>
</g>
<defs>
<filter id="filter0_d_461_126" x="4.86255" y="5.09668" width="55.9634" height="54.9717" filterUnits="userSpaceOnUse" color-interpolation-filters="sRGB">
<feFlood flood-opacity="0" result="BackgroundImageFix"/>
<feColorMatrix in="SourceAlpha" type="matrix" values="0 0 0 0 0 0 0 0 0 0 0 0 0 0 0 0 0 0 127 0" result="hardAlpha"/>
<feOffset/>
<feGaussianBlur stdDeviation="1"/>
<feComposite in2="hardAlpha" operator="out"/>
<feColorMatrix type="matrix" values="0 0 0 0 0 0 0 0 0 0 0 0 0 0 0 0 0 0 0.25 0"/>
<feBlend mode="normal" in2="BackgroundImageFix" result="effect1_dropShadow_461_126"/>
<feBlend mode="normal" in="SourceGraphic" in2="effect1_dropShadow_461_126" result="shape"/>
</filter>
<clipPath id="clip0_461_126">
<rect width="244" height="65" fill="white"/>
</clipPath>
</defs>
</svg>
