<svg width="21" height="24" viewBox="0 0 21 24" fill="none" xmlns="http://www.w3.org/2000/svg">
<g clip-path="url(#clip0_611_2084)">
<path d="M10.4996 19.6678C11.262 19.6678 11.88 20.2627 11.88 20.9968C11.88 21.731 11.262 22.3259 10.4996 22.3259C9.73713 22.3259 9.11919 21.731 9.11919 20.9968C9.11919 20.2627 9.73713 19.6678 10.4996 19.6678ZM10.4996 19.5005C8.77533 19.5005 7.375 19.3367 7.375 20.9968C7.375 22.657 8.77533 24.0052 10.4996 24.0052C12.2238 24.0052 13.6242 22.657 13.6242 20.9968C13.6242 19.3367 12.2238 19.5005 10.4996 19.5005Z" fill="white"/>
<path d="M10.5004 1.67933C14.2229 1.67933 17.2528 4.59656 17.2528 8.18073V11.7457C17.2528 13.1755 17.791 14.5718 18.8176 15.7761C19.1366 16.1551 19.291 16.6349 19.2512 17.1243C19.1714 18.0936 18.2545 18.8517 17.1631 18.8517H3.83756C2.75118 18.8517 1.83424 18.0936 1.74952 17.1243C1.70966 16.6301 1.85916 16.1551 2.18308 15.7761C3.20467 14.5718 3.74786 13.1755 3.74786 11.7457V8.18073C3.74786 4.59656 6.77776 1.67933 10.5004 1.67933ZM10.5004 0C5.806 0 2.00368 3.66573 2.00368 8.18073V11.7457C2.00368 12.8397 1.55019 13.8665 0.832579 14.7157C0.254506 15.397 -0.0694146 16.2943 0.015303 17.2635C0.174771 19.1347 1.88906 20.531 3.84255 20.531H17.1681C19.1166 20.531 20.8359 19.1347 20.9954 17.2635C21.0751 16.2943 20.7562 15.4018 20.1781 14.7157C19.4605 13.8665 19.007 12.8397 19.007 11.7457V8.18073C18.997 3.66573 15.1947 0 10.5004 0V0Z" fill="white"/>
<circle cx="17" cy="4" r="4" fill="#F27953"/>
</g>
<defs>
<clipPath id="clip0_611_2084">
<rect width="21" height="24" fill="white"/>
</clipPath>
</defs>
</svg>
