<svg width="267" height="198" viewBox="0 0 267 198" fill="none" xmlns="http://www.w3.org/2000/svg">
<path d="M9 12V190" stroke="#EEEEEE"/>
<path d="M28.017 43V41.922H25.201C24.849 41.922 24.486 41.988 24.145 42.076L26.213 39.986C27.027 39.172 27.874 38.303 27.874 37.071C27.874 35.597 26.752 34.783 25.388 34.783C23.881 34.783 22.869 35.652 22.66 37.104L23.87 37.324C23.804 36.455 24.453 35.817 25.322 35.817C26.884 35.817 26.818 37.357 26.268 38.347C25.982 38.798 25.63 39.172 25.256 39.546L22.517 42.296V43H28.017ZM34.7897 38.941C34.7897 37.071 34.1187 34.783 31.8197 34.783C29.5537 34.783 28.8607 37.005 28.8607 38.941C28.8607 40.877 29.5537 43.088 31.8197 43.088C34.0857 43.088 34.7897 40.877 34.7897 38.941ZM33.5357 38.941C33.5357 40.074 33.3377 42.076 31.8197 42.076C30.3127 42.076 30.1037 40.074 30.1037 38.941C30.1037 37.808 30.3017 35.806 31.8197 35.806C33.3377 35.806 33.5357 37.808 33.5357 38.941ZM41.1225 43V41.922H38.3065C37.9545 41.922 37.5915 41.988 37.2505 42.076L39.3185 39.986C40.1325 39.172 40.9795 38.303 40.9795 37.071C40.9795 35.597 39.8575 34.783 38.4935 34.783C36.9865 34.783 35.9745 35.652 35.7655 37.104L36.9755 37.324C36.9095 36.455 37.5585 35.817 38.4275 35.817C39.9895 35.817 39.9235 37.357 39.3735 38.347C39.0875 38.798 38.7355 39.172 38.3615 39.546L35.6225 42.296V43H41.1225ZM43.3962 37.544L44.7162 36.433C44.7052 36.62 44.7052 36.807 44.7052 36.983V41.944H43.0112V43H47.4442V41.944H45.9152V34.849H44.9252L42.7252 36.73L43.3962 37.544ZM49.9929 43.143V41.779H48.6949V43.143H49.9929ZM59.819 38.941C59.819 37.071 59.148 34.783 56.849 34.783C54.583 34.783 53.89 37.005 53.89 38.941C53.89 40.877 54.583 43.088 56.849 43.088C59.115 43.088 59.819 40.877 59.819 38.941ZM58.565 38.941C58.565 40.074 58.367 42.076 56.849 42.076C55.342 42.076 55.133 40.074 55.133 38.941C55.133 37.808 55.331 35.806 56.849 35.806C58.367 35.806 58.565 37.808 58.565 38.941ZM66.2398 35.729V34.871H60.6628V35.982H65.0078C64.8538 36.158 64.7218 36.356 64.6228 36.565L61.3448 43H62.6648L66.2398 35.729Z" fill="#9E9E9E"/>
<path d="M98.482 41.985L97.741 43.025C97.897 43.168 98.066 43.298 98.274 43.428C98.885 43.883 99.743 44.104 100.484 44.104C102.538 44.104 104.007 42.739 104.007 40.711C104.007 38.813 102.681 37.799 100.926 37.799C100.51 37.799 100.068 37.851 99.652 37.942L100.042 35.706H103.695V34.393H99.041L98.261 38.982L99.145 39.229C99.626 39.086 100.12 38.982 100.627 38.982C101.823 38.982 102.577 39.606 102.577 40.789C102.577 41.972 101.836 42.882 100.575 42.882C99.808 42.882 99.028 42.505 98.482 41.985ZM112.115 39.203C112.115 36.993 111.322 34.289 108.605 34.289C105.927 34.289 105.108 36.915 105.108 39.203C105.108 41.491 105.927 44.104 108.605 44.104C111.283 44.104 112.115 41.491 112.115 39.203ZM110.633 39.203C110.633 40.542 110.399 42.908 108.605 42.908C106.824 42.908 106.577 40.542 106.577 39.203C106.577 37.864 106.811 35.498 108.605 35.498C110.399 35.498 110.633 37.864 110.633 39.203ZM122.875 33.262H121.536V36.2H119.365C119.118 34.835 117.909 33.899 116.362 33.899C114.633 33.899 113.307 35.082 113.307 36.746C113.307 38.423 114.633 39.619 116.362 39.619C117.909 39.619 119.118 38.683 119.365 37.292H121.536V40.204H122.875V33.262ZM116.362 38.475C115.361 38.475 114.594 37.786 114.594 36.746C114.594 35.732 115.361 35.03 116.362 35.03C117.363 35.03 118.143 35.732 118.143 36.746C118.143 37.786 117.363 38.475 116.362 38.475ZM114.958 40.802V41.881H121.536V45.027H122.875V40.802H114.958ZM136.402 40.152H134.101V41.088H136.402V42.18H137.741V33.249H136.402V40.152ZM131.761 37.838C133.477 37.838 134.66 37.019 134.66 35.771C134.66 34.523 133.477 33.704 131.761 33.704C130.045 33.704 128.849 34.523 128.849 35.771C128.849 37.019 130.045 37.838 131.761 37.838ZM131.761 34.692C132.749 34.692 133.386 35.108 133.386 35.771C133.386 36.434 132.749 36.85 131.761 36.85C130.773 36.85 130.123 36.434 130.123 35.771C130.123 35.108 130.773 34.692 131.761 34.692ZM131.228 39.619V41.803H132.567V39.541C133.568 39.489 134.595 39.372 135.583 39.203L135.479 38.241C132.983 38.553 130.11 38.592 127.952 38.592L128.121 39.684C129.057 39.684 130.084 39.671 131.228 39.619ZM138.014 43.688H130.877V41.309H129.538V44.78H138.014V43.688ZM153.505 40.152V39.047H151.75C152.101 37.162 152.088 35.823 152.088 34.783V33.964H144.184V35.056H150.762C150.762 36.044 150.749 37.318 150.398 39.047H142.884V40.152H145.471V45.014H146.797V40.152H149.501V45.014H150.84V40.152H153.505ZM165.477 42.466H160.81V39.814H164.242V34.198H156.026V39.814H159.471V42.466H154.843V43.558H165.477V42.466ZM157.339 38.748V35.264H162.929V38.748H157.339ZM179.368 33.249H178.016V45.027H179.368V33.249ZM174.038 36.161V34.237H172.699V36.161C172.699 38.41 171.477 40.685 169.605 41.517L170.398 42.635C171.815 41.946 172.855 40.581 173.388 38.852C173.921 40.477 174.948 41.738 176.3 42.375L177.08 41.309C175.234 40.477 174.038 38.332 174.038 36.161ZM191.353 33.236H190.001V45.027H191.353V33.236ZM183.683 41.127V38.657H187.778V34.302H182.305V35.394H186.426V37.578H182.331V42.232H183.332C185.399 42.232 187.154 42.167 189.169 41.816L189.026 40.724C187.167 41.023 185.542 41.114 183.683 41.127ZM194.082 39.463L194.628 40.529C196.552 40.152 198.151 39.086 198.931 37.539C199.763 39.099 201.297 40.074 203.286 40.477L203.832 39.411C201.505 39.06 199.633 37.474 199.633 35.706V35.433H203.364V34.341H194.498V35.433H198.229V35.706C198.229 37.474 196.37 39.086 194.082 39.463ZM204.261 42.427H193.627V43.519H204.261V42.427ZM210.591 41.27L211.397 44H212.996L209.824 34.432H208.082L204.91 44H206.444L207.263 41.27H210.591ZM210.227 40.087H207.614L208.004 38.8C208.316 37.76 208.615 36.707 208.888 35.615H208.94C209.239 36.707 209.525 37.76 209.85 38.8L210.227 40.087ZM226.057 39.255V38.189H219.271V37.006H225.654V35.966H219.271V34.835H225.927V33.769H217.932V39.255H226.057ZM227.201 41.4V40.308H216.554V41.4H221.208V45.027H222.547V41.4H227.201ZM239.459 38.995V37.89H237.626V33.262H236.287V45.001H237.626V38.995H239.459ZM232.647 36.668V35.537H235.13V34.432H228.747V35.537H231.308V36.668C231.308 38.605 230.125 40.828 228.318 41.699L229.085 42.765C230.45 42.102 231.477 40.698 231.997 39.06C232.53 40.581 233.531 41.842 234.844 42.466L235.585 41.413C233.804 40.581 232.647 38.475 232.647 36.668ZM248.696 38.878C251.153 38.878 252.856 37.877 252.856 36.278C252.856 34.705 251.153 33.691 248.696 33.691C246.213 33.691 244.523 34.705 244.523 36.278C244.523 37.877 246.213 38.878 248.696 38.878ZM248.696 34.77C250.36 34.77 251.478 35.342 251.478 36.278C251.478 37.227 250.373 37.799 248.696 37.799C246.967 37.799 245.901 37.227 245.901 36.278C245.901 35.342 247.006 34.77 248.696 34.77ZM254.052 40.984L254.039 39.879H243.392V40.984H245.992V45.001H247.357V40.984H250.035V45.001H251.4V40.984H254.052ZM265.036 33.249H263.684V44.988H265.036V33.249ZM259.797 36.993V36.317H262.345V35.238H259.797V33.496H258.458V35.238H255.858V36.317H258.458V36.993C258.458 38.93 257.34 40.919 255.494 41.751L256.235 42.778C257.6 42.154 258.627 40.893 259.147 39.32C259.68 40.789 260.694 41.998 262.046 42.583L262.761 41.543C260.941 40.737 259.797 38.852 259.797 36.993Z" fill="black"/>
<circle cx="9" cy="39" r="5" fill="#EEEEEE"/>
<path d="M28.017 73V71.922H25.201C24.849 71.922 24.486 71.988 24.145 72.076L26.213 69.986C27.027 69.172 27.874 68.303 27.874 67.071C27.874 65.597 26.752 64.783 25.388 64.783C23.881 64.783 22.869 65.652 22.66 67.104L23.87 67.324C23.804 66.455 24.453 65.817 25.322 65.817C26.884 65.817 26.818 67.357 26.268 68.347C25.982 68.798 25.63 69.172 25.256 69.546L22.517 72.296V73H28.017ZM34.7897 68.941C34.7897 67.071 34.1187 64.783 31.8197 64.783C29.5537 64.783 28.8607 67.005 28.8607 68.941C28.8607 70.877 29.5537 73.088 31.8197 73.088C34.0857 73.088 34.7897 70.877 34.7897 68.941ZM33.5357 68.941C33.5357 70.074 33.3377 72.076 31.8197 72.076C30.3127 72.076 30.1037 70.074 30.1037 68.941C30.1037 67.808 30.3017 65.806 31.8197 65.806C33.3377 65.806 33.5357 67.808 33.5357 68.941ZM36.8435 67.544L38.1635 66.433C38.1525 66.62 38.1525 66.807 38.1525 66.983V71.944H36.4585V73H40.8915V71.944H39.3625V64.849H38.3725L36.1725 66.73L36.8435 67.544ZM43.0442 73H44.5842L46.6962 69.975C47.2462 69.172 47.6312 68.435 47.6312 67.434C47.6312 65.806 46.5422 64.783 44.9802 64.783C43.4512 64.783 42.2412 65.85 42.2412 67.379C42.2412 68.743 43.1652 69.711 44.5072 69.711C45.0242 69.711 45.5082 69.579 45.9262 69.282L45.5412 69.81L43.0442 73ZM43.4512 67.291C43.4512 66.389 44.0892 65.784 44.9582 65.784C45.8932 65.784 46.4652 66.411 46.4652 67.302C46.4652 68.182 45.8272 68.787 44.9252 68.787C43.9902 68.787 43.4512 68.215 43.4512 67.291ZM49.9929 73.143V71.779H48.6949V73.143H49.9929ZM59.819 68.941C59.819 67.071 59.148 64.783 56.849 64.783C54.583 64.783 53.89 67.005 53.89 68.941C53.89 70.877 54.583 73.088 56.849 73.088C59.115 73.088 59.819 70.877 59.819 68.941ZM58.565 68.941C58.565 70.074 58.367 72.076 56.849 72.076C55.342 72.076 55.133 70.074 55.133 68.941C55.133 67.808 55.331 65.806 56.849 65.806C58.367 65.806 58.565 67.808 58.565 68.941ZM61.7078 70.514L60.6408 70.954C61.0808 72.428 61.9498 73.099 63.4348 73.099C64.9418 73.099 66.1848 72.186 66.1848 70.635C66.1848 69.612 65.6348 68.996 64.6668 68.721C65.6018 68.424 66.0088 67.808 66.0088 66.873C66.0088 65.498 64.8318 64.783 63.5998 64.783C62.0928 64.783 61.0918 65.674 60.8828 67.115L62.0818 67.324C62.0158 66.455 62.6978 65.817 63.5338 65.817C64.3368 65.817 64.8318 66.301 64.8318 67.082C64.8318 68.16 63.9188 68.402 63.0058 68.402V69.282C63.9958 69.282 64.9748 69.425 64.9748 70.668C64.9748 71.515 64.2488 72.065 63.4238 72.065C62.5878 72.065 61.8068 71.35 61.7078 70.514Z" fill="#9E9E9E"/>
<path d="M98.261 64.432V74H99.769V69.645H103.864V74H105.372V64.432H103.864V68.332H99.769V64.432H98.261ZM110.718 74.169C111.654 74.169 112.473 73.87 113.136 73.415L112.616 72.466C112.096 72.817 111.55 72.999 110.913 72.999C109.665 72.999 108.82 72.18 108.703 70.815H113.344C113.383 70.62 113.409 70.373 113.409 70.061C113.409 68.033 112.395 66.668 110.497 66.668C108.82 66.668 107.234 68.098 107.234 70.438C107.234 72.791 108.781 74.169 110.718 74.169ZM112.122 69.788H108.69C108.833 68.54 109.639 67.838 110.523 67.838C111.563 67.838 112.122 68.54 112.122 69.788ZM116.626 63.821H115.092V65.433H116.626V63.821ZM113.337 76.886L114.442 77.081C116.028 77.081 116.6 76.028 116.6 74.533V66.85H115.105V74.559C115.105 75.404 114.923 75.885 114.247 75.885C114.026 75.885 113.805 75.82 113.61 75.768L113.337 76.886ZM121.697 64.432V74H123.205V69.645H127.3V74H128.808V64.432H127.3V68.332H123.205V64.432H121.697ZM134.05 74.169C135.818 74.169 137.417 72.791 137.417 70.438C137.417 68.046 135.818 66.668 134.05 66.668C132.282 66.668 130.683 68.046 130.683 70.438C130.683 72.791 132.282 74.169 134.05 74.169ZM134.05 72.947C132.945 72.947 132.23 71.946 132.23 70.438C132.23 68.917 132.906 67.903 134.05 67.903C135.194 67.903 135.883 68.917 135.883 70.438C135.883 71.946 135.181 72.947 134.05 72.947ZM139.175 66.85V74H140.657V68.93C141.255 68.28 141.788 67.955 142.269 67.955C143.101 67.955 143.465 68.436 143.465 69.684V74H144.96V68.93C145.558 68.28 146.091 67.955 146.572 67.955C147.404 67.955 147.768 68.436 147.768 69.684V74H149.263V69.502C149.263 67.669 148.587 66.668 147.066 66.668C146.169 66.668 145.467 67.201 144.739 67.981C144.427 67.149 143.855 66.668 142.763 66.668C141.879 66.668 141.164 67.188 140.553 67.851H140.514L140.397 66.85H139.175ZM154.39 74.169C155.326 74.169 156.145 73.87 156.808 73.415L156.288 72.466C155.768 72.817 155.222 72.999 154.585 72.999C153.337 72.999 152.492 72.18 152.375 70.815H157.016C157.055 70.62 157.081 70.373 157.081 70.061C157.081 68.033 156.067 66.668 154.169 66.668C152.492 66.668 150.906 68.098 150.906 70.438C150.906 72.791 152.453 74.169 154.39 74.169ZM155.794 69.788H152.362C152.505 68.54 153.311 67.838 154.195 67.838C155.235 67.838 155.794 68.54 155.794 69.788ZM163.738 64.068H162.412V70.256H170.628V64.068H169.302V66.122H163.738V64.068ZM163.738 69.177V67.188H169.302V69.177H163.738ZM171.85 72.427H161.216V73.532H171.85V72.427ZM180.533 71.699V67.786H181.833V72.011H183.107V63.249H181.833V66.694H180.533V63.47H179.285V71.699H180.533ZM178.778 70.009L178.661 68.93C177.452 69.177 176.373 69.242 174.969 69.242V67.734H178.089V64.237H173.643V65.303H176.789V66.746H173.669V70.321H174.462C176.191 70.321 177.348 70.256 178.778 70.009ZM183.432 73.688H176.698V71.192H175.346V74.78H183.432V73.688ZM194.572 69.879V68.8H187.773V65.381H194.481V64.289H186.434V69.879H194.572ZM195.781 72.388H185.134V73.493H195.781V72.388ZM208.385 67.357V71.894H209.724V63.262H208.385V66.226H206.357V67.357H208.385ZM206.682 70.035L206.565 68.943C205.07 69.19 203.822 69.255 201.781 69.255V67.643H205.694V64.055H200.429V65.134H204.355V66.616H200.455V70.347H201.378C203.666 70.347 205.044 70.282 206.682 70.035ZM210.049 73.688H203.393V71.244H202.054V74.78H210.049V73.688ZM221.631 70.412V63.262H220.292V70.412H221.631ZM218.615 69.905L219.226 68.865C217.406 68.345 216.34 67.071 216.34 65.68V65.667H218.862V64.601H216.34V63.262H215.001V64.601H212.453V65.667H215.001V65.68C215.001 67.149 213.935 68.592 212.115 69.138L212.752 70.165C214.169 69.736 215.17 68.813 215.69 67.617C216.249 68.709 217.25 69.528 218.615 69.905ZM217.705 70.633C215.235 70.633 213.727 71.439 213.727 72.817C213.727 74.195 215.235 75.001 217.705 75.001C220.175 75.001 221.683 74.195 221.683 72.817C221.683 71.439 220.175 70.633 217.705 70.633ZM217.705 73.961C216.028 73.961 215.066 73.558 215.066 72.817C215.066 72.076 216.028 71.673 217.705 71.673C219.382 71.673 220.344 72.076 220.344 72.817C220.344 73.558 219.382 73.961 217.705 73.961Z" fill="black"/>
<circle cx="9" cy="69" r="5" fill="#EEEEEE"/>
<path d="M28.017 103V101.922H25.201C24.849 101.922 24.486 101.988 24.145 102.076L26.213 99.986C27.027 99.172 27.874 98.303 27.874 97.071C27.874 95.597 26.752 94.783 25.388 94.783C23.881 94.783 22.869 95.652 22.66 97.104L23.87 97.324C23.804 96.455 24.453 95.817 25.322 95.817C26.884 95.817 26.818 97.357 26.268 98.347C25.982 98.798 25.63 99.172 25.256 99.546L22.517 102.296V103H28.017ZM34.7897 98.941C34.7897 97.071 34.1187 94.783 31.8197 94.783C29.5537 94.783 28.8607 97.005 28.8607 98.941C28.8607 100.877 29.5537 103.088 31.8197 103.088C34.0857 103.088 34.7897 100.877 34.7897 98.941ZM33.5357 98.941C33.5357 100.074 33.3377 102.076 31.8197 102.076C30.3127 102.076 30.1037 100.074 30.1037 98.941C30.1037 97.808 30.3017 95.806 31.8197 95.806C33.3377 95.806 33.5357 97.808 33.5357 98.941ZM36.8435 97.544L38.1635 96.433C38.1525 96.62 38.1525 96.807 38.1525 96.983V101.944H36.4585V103H40.8915V101.944H39.3625V94.849H38.3725L36.1725 96.73L36.8435 97.544ZM46.2232 98.754C47.0262 98.446 47.4442 97.797 47.4442 96.939C47.4442 95.564 46.2342 94.783 44.9362 94.783C43.6382 94.783 42.4282 95.564 42.4282 96.939C42.4282 97.797 42.8462 98.446 43.6602 98.754C42.6922 99.051 42.1532 99.711 42.1532 100.734C42.1532 102.318 43.4402 103.088 44.9362 103.088C46.3662 103.088 47.7192 102.351 47.7192 100.734C47.7192 99.722 47.1802 99.051 46.2232 98.754ZM44.9362 95.707C45.6842 95.707 46.2672 96.158 46.2672 96.961C46.2672 97.808 45.7502 98.303 44.9362 98.303C44.1112 98.303 43.6052 97.819 43.6052 96.961C43.6052 96.18 44.1552 95.707 44.9362 95.707ZM44.9362 102.131C44.0452 102.131 43.3962 101.603 43.3962 100.712C43.3962 99.744 44.0562 99.271 44.9362 99.271C45.8162 99.271 46.4762 99.755 46.4762 100.712C46.4762 101.647 45.7832 102.131 44.9362 102.131ZM49.9929 103.143V101.779H48.6949V103.143H49.9929ZM59.819 98.941C59.819 97.071 59.148 94.783 56.849 94.783C54.583 94.783 53.89 97.005 53.89 98.941C53.89 100.877 54.583 103.088 56.849 103.088C59.115 103.088 59.819 100.877 59.819 98.941ZM58.565 98.941C58.565 100.074 58.367 102.076 56.849 102.076C55.342 102.076 55.133 100.074 55.133 98.941C55.133 97.808 55.331 95.806 56.849 95.806C58.367 95.806 58.565 97.808 58.565 98.941ZM65.3598 94.871H63.8528L61.6308 97.841C61.1248 98.523 60.6628 99.392 60.6628 100.261C60.6628 101.988 61.7298 103.088 63.4128 103.088C64.9858 103.088 66.2508 101.977 66.2508 100.393C66.2508 98.985 65.3158 97.962 63.8418 97.962C63.4128 97.962 62.9838 98.072 62.6098 98.281L65.3598 94.871ZM63.3908 102.087C62.3788 102.087 61.8288 101.405 61.8288 100.459C61.8288 99.557 62.5108 98.886 63.4348 98.886C64.4028 98.886 65.0408 99.513 65.0408 100.481C65.0408 101.438 64.3038 102.087 63.3908 102.087Z" fill="#9E9E9E"/>
<path d="M108.284 100.568V99.463H106.607C107.023 97.552 107.01 96.2 107.01 94.991V93.912H98.963V95.004H105.71C105.71 95.472 105.723 95.94 105.684 96.46L98.599 96.707L98.768 97.838L105.619 97.5C105.554 98.085 105.45 98.735 105.294 99.463H97.663V100.568H100.25V105.014H101.589V100.568H104.28V105.014H105.619V100.568H108.284ZM119.372 93.249H118.033V97.422H114.887V98.527H118.033V105.027H119.372V93.249ZM111.533 101.036V95.433H115.524V94.341H110.194V102.154H111.117C113.314 102.154 114.731 102.076 116.356 101.764L116.226 100.685C114.744 100.958 113.431 101.036 111.533 101.036ZM131.175 100.1L131.76 98.995C129.446 98.579 127.561 96.772 127.561 94.9V94.016H126.144V94.9C126.144 96.733 124.259 98.579 121.945 98.995L122.517 100.1C124.428 99.723 126.079 98.475 126.846 96.876C127.613 98.475 129.264 99.723 131.175 100.1ZM132.215 102.388H121.581V103.493H132.215V102.388ZM145.924 99.255V98.189H139.138V97.006H145.521V95.966H139.138V94.835H145.794V93.769H137.799V99.255H145.924ZM147.068 101.4V100.308H136.421V101.4H141.075V105.027H142.414V101.4H147.068ZM159.326 98.995V97.89H157.493V93.262H156.154V105.001H157.493V98.995H159.326ZM152.514 96.668V95.537H154.997V94.432H148.614V95.537H151.175V96.668C151.175 98.605 149.992 100.828 148.185 101.699L148.952 102.765C150.317 102.102 151.344 100.698 151.864 99.06C152.397 100.581 153.398 101.842 154.711 102.466L155.452 101.413C153.671 100.581 152.514 98.475 152.514 96.668ZM168.563 98.878C171.02 98.878 172.723 97.877 172.723 96.278C172.723 94.705 171.02 93.691 168.563 93.691C166.08 93.691 164.39 94.705 164.39 96.278C164.39 97.877 166.08 98.878 168.563 98.878ZM168.563 94.77C170.227 94.77 171.345 95.342 171.345 96.278C171.345 97.227 170.24 97.799 168.563 97.799C166.834 97.799 165.768 97.227 165.768 96.278C165.768 95.342 166.873 94.77 168.563 94.77ZM173.919 100.984L173.906 99.879H163.259V100.984H165.859V105.001H167.224V100.984H169.902V105.001H171.267V100.984H173.919ZM184.903 93.249H183.551V104.988H184.903V93.249ZM179.664 96.993V96.317H182.212V95.238H179.664V93.496H178.325V95.238H175.725V96.317H178.325V96.993C178.325 98.93 177.207 100.919 175.361 101.751L176.102 102.778C177.467 102.154 178.494 100.893 179.014 99.32C179.547 100.789 180.561 101.998 181.913 102.583L182.628 101.543C180.808 100.737 179.664 98.852 179.664 96.993Z" fill="black"/>
<circle cx="9" cy="99" r="5" fill="#EEEEEE"/>
<path d="M28.017 133V131.922H25.201C24.849 131.922 24.486 131.988 24.145 132.076L26.213 129.986C27.027 129.172 27.874 128.303 27.874 127.071C27.874 125.597 26.752 124.783 25.388 124.783C23.881 124.783 22.869 125.652 22.66 127.104L23.87 127.324C23.804 126.455 24.453 125.817 25.322 125.817C26.884 125.817 26.818 127.357 26.268 128.347C25.982 128.798 25.63 129.172 25.256 129.546L22.517 132.296V133H28.017ZM34.7897 128.941C34.7897 127.071 34.1187 124.783 31.8197 124.783C29.5537 124.783 28.8607 127.005 28.8607 128.941C28.8607 130.877 29.5537 133.088 31.8197 133.088C34.0857 133.088 34.7897 130.877 34.7897 128.941ZM33.5357 128.941C33.5357 130.074 33.3377 132.076 31.8197 132.076C30.3127 132.076 30.1037 130.074 30.1037 128.941C30.1037 127.808 30.3017 125.806 31.8197 125.806C33.3377 125.806 33.5357 127.808 33.5357 128.941ZM36.8435 127.544L38.1635 126.433C38.1525 126.62 38.1525 126.807 38.1525 126.983V131.944H36.4585V133H40.8915V131.944H39.3625V124.849H38.3725L36.1725 126.73L36.8435 127.544ZM46.8832 124.871H45.3762L43.1542 127.841C42.6482 128.523 42.1862 129.392 42.1862 130.261C42.1862 131.988 43.2532 133.088 44.9362 133.088C46.5092 133.088 47.7742 131.977 47.7742 130.393C47.7742 128.985 46.8392 127.962 45.3652 127.962C44.9362 127.962 44.5072 128.072 44.1332 128.281L46.8832 124.871ZM44.9142 132.087C43.9022 132.087 43.3522 131.405 43.3522 130.459C43.3522 129.557 44.0342 128.886 44.9582 128.886C45.9262 128.886 46.5642 129.513 46.5642 130.481C46.5642 131.438 45.8272 132.087 44.9142 132.087ZM49.9929 133.143V131.779H48.6949V133.143H49.9929ZM59.819 128.941C59.819 127.071 59.148 124.783 56.849 124.783C54.583 124.783 53.89 127.005 53.89 128.941C53.89 130.877 54.583 133.088 56.849 133.088C59.115 133.088 59.819 130.877 59.819 128.941ZM58.565 128.941C58.565 130.074 58.367 132.076 56.849 132.076C55.342 132.076 55.133 130.074 55.133 128.941C55.133 127.808 55.331 125.806 56.849 125.806C58.367 125.806 58.565 127.808 58.565 128.941ZM61.5208 133H63.0608L65.1728 129.975C65.7228 129.172 66.1078 128.435 66.1078 127.434C66.1078 125.806 65.0188 124.783 63.4568 124.783C61.9278 124.783 60.7178 125.85 60.7178 127.379C60.7178 128.743 61.6418 129.711 62.9838 129.711C63.5008 129.711 63.9848 129.579 64.4028 129.282L64.0178 129.81L61.5208 133ZM61.9278 127.291C61.9278 126.389 62.5658 125.784 63.4348 125.784C64.3698 125.784 64.9418 126.411 64.9418 127.302C64.9418 128.182 64.3038 128.787 63.4018 128.787C62.4668 128.787 61.9278 128.215 61.9278 127.291Z" fill="#9E9E9E"/>
<path d="M103.318 126.369H106.048V127.721H103.201V128.813H106.048V130.165H107.387V123.262H106.048V125.277H103.63C103.695 124.913 103.734 124.523 103.734 124.107H98.404V125.186H102.304C102.057 127.019 100.614 128.449 97.793 129.229L98.326 130.295C100.939 129.554 102.603 128.241 103.318 126.369ZM103.539 130.308C101.16 130.308 99.626 131.205 99.626 132.622C99.626 134.065 101.16 134.949 103.539 134.949C105.918 134.949 107.465 134.065 107.465 132.622C107.465 131.205 105.918 130.308 103.539 130.308ZM103.539 133.896C101.914 133.896 100.952 133.454 100.952 132.622C100.952 131.79 101.914 131.361 103.539 131.361C105.164 131.361 106.139 131.79 106.139 132.622C106.139 133.454 105.164 133.896 103.539 133.896ZM119.294 131.79V123.262H117.955V131.79H119.294ZM116.07 126.98C116.07 125.251 114.731 124.042 112.963 124.042C111.195 124.042 109.843 125.251 109.843 126.98C109.843 128.683 111.195 129.918 112.963 129.918C114.731 129.918 116.07 128.683 116.07 126.98ZM111.156 126.98C111.156 125.888 111.923 125.199 112.963 125.199C113.99 125.199 114.77 125.888 114.77 126.98C114.77 128.046 113.99 128.761 112.963 128.761C111.923 128.761 111.156 128.046 111.156 126.98ZM119.632 133.688H112.976V130.932H111.624V134.78H119.632V133.688ZM129.966 126.408H127.834V127.513H129.966V131.855H131.305V123.275H129.966V126.408ZM127.899 130.191L128.562 129.151C126.794 128.527 125.806 127.071 125.806 125.628V125.225H128.25V124.146H121.971V125.225H124.454V125.628C124.454 127.201 123.388 128.774 121.568 129.398L122.257 130.451C123.661 129.97 124.636 128.969 125.156 127.669C125.663 128.826 126.599 129.736 127.899 130.191ZM131.604 133.688H125.039V131.114H123.7V134.78H131.604V133.688ZM144.46 128.995V127.89H142.627V123.262H141.288V135.001H142.627V128.995H144.46ZM137.648 126.668V125.537H140.131V124.432H133.748V125.537H136.309V126.668C136.309 128.605 135.126 130.828 133.319 131.699L134.086 132.765C135.451 132.102 136.478 130.698 136.998 129.06C137.531 130.581 138.532 131.842 139.845 132.466L140.586 131.413C138.805 130.581 137.648 128.475 137.648 126.668ZM157.883 129.255V128.189H151.097V127.006H157.48V125.966H151.097V124.835H157.753V123.769H149.758V129.255H157.883ZM159.027 131.4V130.308H148.38V131.4H153.034V135.027H154.373V131.4H159.027ZM171.285 128.995V127.89H169.452V123.262H168.113V135.001H169.452V128.995H171.285ZM164.473 126.668V125.537H166.956V124.432H160.573V125.537H163.134V126.668C163.134 128.605 161.951 130.828 160.144 131.699L160.911 132.765C162.276 132.102 163.303 130.698 163.823 129.06C164.356 130.581 165.357 131.842 166.67 132.466L167.411 131.413C165.63 130.581 164.473 128.475 164.473 126.668ZM180.522 128.878C182.979 128.878 184.682 127.877 184.682 126.278C184.682 124.705 182.979 123.691 180.522 123.691C178.039 123.691 176.349 124.705 176.349 126.278C176.349 127.877 178.039 128.878 180.522 128.878ZM180.522 124.77C182.186 124.77 183.304 125.342 183.304 126.278C183.304 127.227 182.199 127.799 180.522 127.799C178.793 127.799 177.727 127.227 177.727 126.278C177.727 125.342 178.832 124.77 180.522 124.77ZM185.878 130.984L185.865 129.879H175.218V130.984H177.818V135.001H179.183V130.984H181.861V135.001H183.226V130.984H185.878ZM196.862 123.249H195.51V134.988H196.862V123.249ZM191.623 126.993V126.317H194.171V125.238H191.623V123.496H190.284V125.238H187.684V126.317H190.284V126.993C190.284 128.93 189.166 130.919 187.32 131.751L188.061 132.778C189.426 132.154 190.453 130.893 190.973 129.32C191.506 130.789 192.52 131.998 193.872 132.583L194.587 131.543C192.767 130.737 191.623 128.852 191.623 126.993Z" fill="black"/>
<circle cx="9" cy="129" r="5" fill="#EEEEEE"/>
<path d="M28.017 163V161.922H25.201C24.849 161.922 24.486 161.988 24.145 162.076L26.213 159.986C27.027 159.172 27.874 158.303 27.874 157.071C27.874 155.597 26.752 154.783 25.388 154.783C23.881 154.783 22.869 155.652 22.66 157.104L23.87 157.324C23.804 156.455 24.453 155.817 25.322 155.817C26.884 155.817 26.818 157.357 26.268 158.347C25.982 158.798 25.63 159.172 25.256 159.546L22.517 162.296V163H28.017ZM34.7897 158.941C34.7897 157.071 34.1187 154.783 31.8197 154.783C29.5537 154.783 28.8607 157.005 28.8607 158.941C28.8607 160.877 29.5537 163.088 31.8197 163.088C34.0857 163.088 34.7897 160.877 34.7897 158.941ZM33.5357 158.941C33.5357 160.074 33.3377 162.076 31.8197 162.076C30.3127 162.076 30.1037 160.074 30.1037 158.941C30.1037 157.808 30.3017 155.806 31.8197 155.806C33.3377 155.806 33.5357 157.808 33.5357 158.941ZM36.8435 157.544L38.1635 156.433C38.1525 156.62 38.1525 156.807 38.1525 156.983V161.944H36.4585V163H40.8915V161.944H39.3625V154.849H38.3725L36.1725 156.73L36.8435 157.544ZM42.9122 161.295L42.2852 162.175C42.4172 162.296 42.5602 162.406 42.7362 162.516C43.2532 162.901 43.9792 163.088 44.6062 163.088C46.3442 163.088 47.5872 161.933 47.5872 160.217C47.5872 158.611 46.4652 157.753 44.9802 157.753C44.6282 157.753 44.2542 157.797 43.9022 157.874L44.2322 155.982H47.3232V154.871H43.3852L42.7252 158.754L43.4732 158.963C43.8802 158.842 44.2982 158.754 44.7272 158.754C45.7392 158.754 46.3772 159.282 46.3772 160.283C46.3772 161.284 45.7502 162.054 44.6832 162.054C44.0342 162.054 43.3742 161.735 42.9122 161.295ZM49.9929 163.143V161.779H48.6949V163.143H49.9929ZM59.819 158.941C59.819 157.071 59.148 154.783 56.849 154.783C54.583 154.783 53.89 157.005 53.89 158.941C53.89 160.877 54.583 163.088 56.849 163.088C59.115 163.088 59.819 160.877 59.819 158.941ZM58.565 158.941C58.565 160.074 58.367 162.076 56.849 162.076C55.342 162.076 55.133 160.074 55.133 158.941C55.133 157.808 55.331 155.806 56.849 155.806C58.367 155.806 58.565 157.808 58.565 158.941ZM61.8728 157.544L63.1928 156.433C63.1818 156.62 63.1818 156.807 63.1818 156.983V161.944H61.4878V163H65.9208V161.944H64.3918V154.849H63.4018L61.2018 156.73L61.8728 157.544Z" fill="#9E9E9E"/>
<path d="M108.492 157.175V156.07H106.828V153.262H105.489V160.087H106.828V157.175H108.492ZM103.838 159.606L104.54 158.566C102.772 157.942 101.784 156.486 101.784 154.926V153.86H100.432V154.965C100.432 156.655 99.418 158.228 97.559 158.878L98.274 159.931C99.678 159.424 100.64 158.423 101.147 157.11C101.654 158.254 102.577 159.151 103.838 159.606ZM99.327 160.594V164.858H106.828V160.594H99.327ZM100.653 163.792V161.66H105.515V163.792H100.653ZM118.007 156.694V160.178H119.346V153.249H118.007V155.602H115.628V156.694H118.007ZM115.875 159.71L116.59 158.657C114.822 158.072 113.834 156.603 113.834 154.978V153.886H112.482V155.043C112.482 156.759 111.455 158.358 109.57 158.982L110.272 160.061C111.689 159.554 112.677 158.527 113.197 157.227C113.704 158.371 114.614 159.255 115.875 159.71ZM115.433 160.503C112.989 160.503 111.481 161.335 111.481 162.752C111.481 164.169 112.989 165.001 115.433 165.001C117.89 165.001 119.398 164.169 119.398 162.752C119.398 161.335 117.89 160.503 115.433 160.503ZM115.433 163.948C113.756 163.948 112.82 163.532 112.82 162.752C112.82 161.972 113.756 161.556 115.433 161.556C117.11 161.556 118.059 161.972 118.059 162.752C118.059 163.532 117.11 163.948 115.433 163.948ZM131.513 162.154V153.262H130.239V162.154H131.513ZM126.638 160.022V157.682H127.964V161.803H129.225V153.483H127.964V156.59H126.638V154.185H125.39V156.083H123.31V154.185H122.049V160.022H126.638ZM125.39 157.123V158.956H123.31V157.123H125.39ZM131.838 163.688H125.104V160.984H123.752V164.78H131.838V163.688ZM143.277 153.236H141.938V157.877H139.611V158.969H141.938V165.027H143.277V153.236ZM137.739 156.993V156.317H140.222V155.238H137.752V153.496H136.4V155.238H133.878V156.317H136.413V156.993C136.413 158.891 135.308 160.919 133.514 161.751L134.255 162.791C135.607 162.154 136.582 160.906 137.089 159.333C137.609 160.802 138.584 161.972 139.936 162.583L140.638 161.556C138.857 160.724 137.739 158.839 137.739 156.993ZM154.976 159.255V158.189H148.19V157.006H154.573V155.966H148.19V154.835H154.846V153.769H146.851V159.255H154.976ZM156.12 161.4V160.308H145.473V161.4H150.127V165.027H151.466V161.4H156.12ZM168.378 158.995V157.89H166.545V153.262H165.206V165.001H166.545V158.995H168.378ZM161.566 156.668V155.537H164.049V154.432H157.666V155.537H160.227V156.668C160.227 158.605 159.044 160.828 157.237 161.699L158.004 162.765C159.369 162.102 160.396 160.698 160.916 159.06C161.449 160.581 162.45 161.842 163.763 162.466L164.504 161.413C162.723 160.581 161.566 158.475 161.566 156.668ZM181.801 159.255V158.189H175.015V157.006H181.398V155.966H175.015V154.835H181.671V153.769H173.676V159.255H181.801ZM182.945 161.4V160.308H172.298V161.4H176.952V165.027H178.291V161.4H182.945ZM195.203 158.995V157.89H193.37V153.262H192.031V165.001H193.37V158.995H195.203ZM188.391 156.668V155.537H190.874V154.432H184.491V155.537H187.052V156.668C187.052 158.605 185.869 160.828 184.062 161.699L184.829 162.765C186.194 162.102 187.221 160.698 187.741 159.06C188.274 160.581 189.275 161.842 190.588 162.466L191.329 161.413C189.548 160.581 188.391 158.475 188.391 156.668ZM204.44 158.878C206.897 158.878 208.6 157.877 208.6 156.278C208.6 154.705 206.897 153.691 204.44 153.691C201.957 153.691 200.267 154.705 200.267 156.278C200.267 157.877 201.957 158.878 204.44 158.878ZM204.44 154.77C206.104 154.77 207.222 155.342 207.222 156.278C207.222 157.227 206.117 157.799 204.44 157.799C202.711 157.799 201.645 157.227 201.645 156.278C201.645 155.342 202.75 154.77 204.44 154.77ZM209.796 160.984L209.783 159.879H199.136V160.984H201.736V165.001H203.101V160.984H205.779V165.001H207.144V160.984H209.796ZM220.78 153.249H219.428V164.988H220.78V153.249ZM215.541 156.993V156.317H218.089V155.238H215.541V153.496H214.202V155.238H211.602V156.317H214.202V156.993C214.202 158.93 213.084 160.919 211.238 161.751L211.979 162.778C213.344 162.154 214.371 160.893 214.891 159.32C215.424 160.789 216.438 161.998 217.79 162.583L218.505 161.543C216.685 160.737 215.541 158.852 215.541 156.993Z" fill="black"/>
<circle cx="9" cy="159" r="5" fill="#EEEEEE"/>
<path d="M28.017 193V191.922H25.201C24.849 191.922 24.486 191.988 24.145 192.076L26.213 189.986C27.027 189.172 27.874 188.303 27.874 187.071C27.874 185.597 26.752 184.783 25.388 184.783C23.881 184.783 22.869 185.652 22.66 187.104L23.87 187.324C23.804 186.455 24.453 185.817 25.322 185.817C26.884 185.817 26.818 187.357 26.268 188.347C25.982 188.798 25.63 189.172 25.256 189.546L22.517 192.296V193H28.017ZM34.7897 188.941C34.7897 187.071 34.1187 184.783 31.8197 184.783C29.5537 184.783 28.8607 187.005 28.8607 188.941C28.8607 190.877 29.5537 193.088 31.8197 193.088C34.0857 193.088 34.7897 190.877 34.7897 188.941ZM33.5357 188.941C33.5357 190.074 33.3377 192.076 31.8197 192.076C30.3127 192.076 30.1037 190.074 30.1037 188.941C30.1037 187.808 30.3017 185.806 31.8197 185.806C33.3377 185.806 33.5357 187.808 33.5357 188.941ZM36.8435 187.544L38.1635 186.433C38.1525 186.62 38.1525 186.807 38.1525 186.983V191.944H36.4585V193H40.8915V191.944H39.3625V184.849H38.3725L36.1725 186.73L36.8435 187.544ZM48.0162 190.943V189.997H46.8942V184.86H45.7612L41.8562 190.063V190.943H45.8382V193H46.8942V190.943H48.0162ZM45.8382 189.997H43.1652L45.8932 186.246C45.8602 186.532 45.8382 186.785 45.8382 187.027V189.997ZM49.9929 193.143V191.779H48.6949V193.143H49.9929ZM59.819 188.941C59.819 187.071 59.148 184.783 56.849 184.783C54.583 184.783 53.89 187.005 53.89 188.941C53.89 190.877 54.583 193.088 56.849 193.088C59.115 193.088 59.819 190.877 59.819 188.941ZM58.565 188.941C58.565 190.074 58.367 192.076 56.849 192.076C55.342 192.076 55.133 190.074 55.133 188.941C55.133 187.808 55.331 185.806 56.849 185.806C58.367 185.806 58.565 187.808 58.565 188.941ZM66.1518 193V191.922H63.3358C62.9838 191.922 62.6208 191.988 62.2798 192.076L64.3478 189.986C65.1618 189.172 66.0088 188.303 66.0088 187.071C66.0088 185.597 64.8868 184.783 63.5228 184.783C62.0158 184.783 61.0038 185.652 60.7948 187.104L62.0048 187.324C61.9388 186.455 62.5878 185.817 63.4568 185.817C65.0188 185.817 64.9528 187.357 64.4028 188.347C64.1168 188.798 63.7648 189.172 63.3908 189.546L60.6518 192.296V193H66.1518Z" fill="#9E9E9E"/>
<path d="M100.068 195.885L101.004 195.469C99.86 193.584 99.366 191.478 99.366 189.229C99.366 186.993 99.86 184.874 101.004 182.989L100.068 182.586C98.859 184.549 98.144 186.668 98.144 189.229C98.144 191.816 98.859 193.909 100.068 195.885ZM102.869 187.955L103.35 189.008C105.287 188.709 106.86 187.76 107.588 186.46C108.329 187.773 109.902 188.696 111.839 189.008L112.32 187.955C110.097 187.643 108.42 186.395 108.355 185.004H111.904V183.925H103.259V185.004H106.834C106.769 186.395 105.092 187.643 102.869 187.955ZM112.892 190.945L112.905 189.866H102.284V190.945H106.886V195.014H108.225V190.945H112.892ZM114.165 195.469L115.101 195.885C116.336 193.909 117.038 191.816 117.038 189.229C117.038 186.668 116.336 184.549 115.101 182.586L114.165 182.989C115.309 184.874 115.803 186.993 115.803 189.229C115.803 191.478 115.309 193.584 114.165 195.469ZM126.976 185.446V185.511C126.976 186.902 126.976 188.579 126.521 190.88L127.873 191.023C128.328 188.592 128.328 186.954 128.328 185.511V184.354H119.969V185.446H126.976ZM129.472 192.362H124.168V188.228H122.816V192.362H118.864V193.467H129.472V192.362ZM139.208 188.761H136.985V189.606H139.208V190.113H140.547V183.249H139.208V188.761ZM133.826 188.449V190.152H135.178V188.384C136.27 188.332 137.362 188.241 138.454 188.098L138.376 187.253C137.973 187.292 137.544 187.318 137.141 187.357C137.388 186.096 137.375 185.108 137.375 184.38V183.665H131.824V184.653H136.062C136.062 184.9 136.075 185.186 136.036 185.485L131.499 185.667L131.694 186.616L135.958 186.343C135.919 186.694 135.88 187.032 135.789 187.435C134.008 187.526 132.318 187.526 130.797 187.526L130.953 188.488C131.85 188.488 132.812 188.475 133.826 188.449ZM140.885 193.948H133.878V193.09H140.547V190.529H132.526V191.452H139.221V192.219H132.552V194.897H140.885V193.948ZM154.074 186.291V189.281H155.413V183.249H154.074V185.212H151.695V186.291H154.074ZM151.916 189.086L152.618 188.046C150.863 187.461 149.849 186.109 149.849 184.614V183.626H148.51V184.614C148.51 186.226 147.483 187.708 145.65 188.293L146.339 189.346C147.743 188.865 148.692 187.942 149.212 186.694C149.719 187.786 150.616 188.657 151.916 189.086ZM155.816 193.805H149.121V192.804H155.413V189.84H147.769V190.88H154.087V191.816H147.795V194.858H155.816V193.805ZM167.32 183.262H165.981V189.749H167.32V183.262ZM164.915 189.177L164.759 188.085C163.056 188.358 161.6 188.436 159.572 188.436V187.136H163.589V183.808H158.22V184.9H162.276V186.122H158.246V189.528H159.234C161.483 189.528 163.082 189.489 164.915 189.177ZM165.994 190.295V191.504H160.963V190.295H159.624V194.858H167.32V190.295H165.994ZM165.994 192.557V193.779H160.963V192.557H165.994Z" fill="black"/>
<circle cx="9" cy="189" r="5" fill="#EEEEEE"/>
<path d="M28.017 13V11.922H25.201C24.849 11.922 24.486 11.988 24.145 12.076L26.213 9.986C27.027 9.172 27.874 8.303 27.874 7.071C27.874 5.597 26.752 4.783 25.388 4.783C23.881 4.783 22.869 5.652 22.66 7.104L23.87 7.324C23.804 6.455 24.453 5.817 25.322 5.817C26.884 5.817 26.818 7.357 26.268 8.347C25.982 8.798 25.63 9.172 25.256 9.546L22.517 12.296V13H28.017ZM34.7897 8.941C34.7897 7.071 34.1187 4.783 31.8197 4.783C29.5537 4.783 28.8607 7.005 28.8607 8.941C28.8607 10.877 29.5537 13.088 31.8197 13.088C34.0857 13.088 34.7897 10.877 34.7897 8.941ZM33.5357 8.941C33.5357 10.074 33.3377 12.076 31.8197 12.076C30.3127 12.076 30.1037 10.074 30.1037 8.941C30.1037 7.808 30.3017 5.806 31.8197 5.806C33.3377 5.806 33.5357 7.808 33.5357 8.941ZM41.1225 13V11.922H38.3065C37.9545 11.922 37.5915 11.988 37.2505 12.076L39.3185 9.986C40.1325 9.172 40.9795 8.303 40.9795 7.071C40.9795 5.597 39.8575 4.783 38.4935 4.783C36.9865 4.783 35.9745 5.652 35.7655 7.104L36.9755 7.324C36.9095 6.455 37.5585 5.817 38.4275 5.817C39.9895 5.817 39.9235 7.357 39.3735 8.347C39.0875 8.798 38.7355 9.172 38.3615 9.546L35.6225 12.296V13H41.1225ZM47.6752 13V11.922H44.8592C44.5072 11.922 44.1442 11.988 43.8032 12.076L45.8712 9.986C46.6852 9.172 47.5322 8.303 47.5322 7.071C47.5322 5.597 46.4102 4.783 45.0462 4.783C43.5392 4.783 42.5272 5.652 42.3182 7.104L43.5282 7.324C43.4622 6.455 44.1112 5.817 44.9802 5.817C46.5422 5.817 46.4762 7.357 45.9262 8.347C45.6402 8.798 45.2882 9.172 44.9142 9.546L42.1752 12.296V13H47.6752ZM49.9929 13.143V11.779H48.6949V13.143H49.9929ZM59.819 8.941C59.819 7.071 59.148 4.783 56.849 4.783C54.583 4.783 53.89 7.005 53.89 8.941C53.89 10.877 54.583 13.088 56.849 13.088C59.115 13.088 59.819 10.877 59.819 8.941ZM58.565 8.941C58.565 10.074 58.367 12.076 56.849 12.076C55.342 12.076 55.133 10.074 55.133 8.941C55.133 7.808 55.331 5.806 56.849 5.806C58.367 5.806 58.565 7.808 58.565 8.941ZM61.7078 10.514L60.6408 10.954C61.0808 12.428 61.9498 13.099 63.4348 13.099C64.9418 13.099 66.1848 12.186 66.1848 10.635C66.1848 9.612 65.6348 8.996 64.6668 8.721C65.6018 8.424 66.0088 7.808 66.0088 6.873C66.0088 5.498 64.8318 4.783 63.5998 4.783C62.0928 4.783 61.0918 5.674 60.8828 7.115L62.0818 7.324C62.0158 6.455 62.6978 5.817 63.5338 5.817C64.3368 5.817 64.8318 6.301 64.8318 7.082C64.8318 8.16 63.9188 8.402 63.0058 8.402V9.282C63.9958 9.282 64.9748 9.425 64.9748 10.668C64.9748 11.515 64.2488 12.065 63.4238 12.065C62.5878 12.065 61.8068 11.35 61.7078 10.514Z" fill="#9E9E9E"/>
<path d="M104.111 14V12.726H100.783C100.367 12.726 99.938 12.804 99.535 12.908L101.979 10.438C102.941 9.476 103.942 8.449 103.942 6.993C103.942 5.251 102.616 4.289 101.004 4.289C99.223 4.289 98.027 5.316 97.78 7.032L99.21 7.292C99.132 6.265 99.899 5.511 100.926 5.511C102.772 5.511 102.694 7.331 102.044 8.501C101.706 9.034 101.29 9.476 100.848 9.918L97.611 13.168V14H104.111ZM112.115 9.203C112.115 6.993 111.322 4.289 108.605 4.289C105.927 4.289 105.108 6.915 105.108 9.203C105.108 11.491 105.927 14.104 108.605 14.104C111.283 14.104 112.115 11.491 112.115 9.203ZM110.633 9.203C110.633 10.542 110.399 12.908 108.605 12.908C106.824 12.908 106.577 10.542 106.577 9.203C106.577 7.864 106.811 5.498 108.605 5.498C110.399 5.498 110.633 7.864 110.633 9.203ZM122.875 3.262H121.536V6.2H119.365C119.118 4.835 117.909 3.899 116.362 3.899C114.633 3.899 113.307 5.082 113.307 6.746C113.307 8.423 114.633 9.619 116.362 9.619C117.909 9.619 119.118 8.683 119.365 7.292H121.536V10.204H122.875V3.262ZM116.362 8.475C115.361 8.475 114.594 7.786 114.594 6.746C114.594 5.732 115.361 5.03 116.362 5.03C117.363 5.03 118.143 5.732 118.143 6.746C118.143 7.786 117.363 8.475 116.362 8.475ZM114.958 10.802V11.881H121.536V15.027H122.875V10.802H114.958ZM136.402 10.152H134.101V11.088H136.402V12.18H137.741V3.249H136.402V10.152ZM131.761 7.838C133.477 7.838 134.66 7.019 134.66 5.771C134.66 4.523 133.477 3.704 131.761 3.704C130.045 3.704 128.849 4.523 128.849 5.771C128.849 7.019 130.045 7.838 131.761 7.838ZM131.761 4.692C132.749 4.692 133.386 5.108 133.386 5.771C133.386 6.434 132.749 6.85 131.761 6.85C130.773 6.85 130.123 6.434 130.123 5.771C130.123 5.108 130.773 4.692 131.761 4.692ZM131.228 9.619V11.803H132.567V9.541C133.568 9.489 134.595 9.372 135.583 9.203L135.479 8.241C132.983 8.553 130.11 8.592 127.952 8.592L128.121 9.684C129.057 9.684 130.084 9.671 131.228 9.619ZM138.014 13.688H130.877V11.309H129.538V14.78H138.014V13.688ZM153.505 10.152V9.047H151.75C152.101 7.162 152.088 5.823 152.088 4.783V3.964H144.184V5.056H150.762C150.762 6.044 150.749 7.318 150.398 9.047H142.884V10.152H145.471V15.014H146.797V10.152H149.501V15.014H150.84V10.152H153.505ZM165.477 12.466H160.81V9.814H164.242V4.198H156.026V9.814H159.471V12.466H154.843V13.558H165.477V12.466ZM157.339 8.748V5.264H162.929V8.748H157.339ZM179.186 9.255V8.189H172.4V7.006H178.783V5.966H172.4V4.835H179.056V3.769H171.061V9.255H179.186ZM180.33 11.4V10.308H169.683V11.4H174.337V15.027H175.676V11.4H180.33ZM192.588 8.995V7.89H190.755V3.262H189.416V15.001H190.755V8.995H192.588ZM185.776 6.668V5.537H188.259V4.432H181.876V5.537H184.437V6.668C184.437 8.605 183.254 10.828 181.447 11.699L182.214 12.765C183.579 12.102 184.606 10.698 185.126 9.06C185.659 10.581 186.66 11.842 187.973 12.466L188.714 11.413C186.933 10.581 185.776 8.475 185.776 6.668ZM201.825 8.878C204.282 8.878 205.985 7.877 205.985 6.278C205.985 4.705 204.282 3.691 201.825 3.691C199.342 3.691 197.652 4.705 197.652 6.278C197.652 7.877 199.342 8.878 201.825 8.878ZM201.825 4.77C203.489 4.77 204.607 5.342 204.607 6.278C204.607 7.227 203.502 7.799 201.825 7.799C200.096 7.799 199.03 7.227 199.03 6.278C199.03 5.342 200.135 4.77 201.825 4.77ZM207.181 10.984L207.168 9.879H196.521V10.984H199.121V15.001H200.486V10.984H203.164V15.001H204.529V10.984H207.181ZM218.165 3.249H216.813V14.988H218.165V3.249ZM212.926 6.993V6.317H215.474V5.238H212.926V3.496H211.587V5.238H208.987V6.317H211.587V6.993C211.587 8.93 210.469 10.919 208.623 11.751L209.364 12.778C210.729 12.154 211.756 10.893 212.276 9.32C212.809 10.789 213.823 11.998 215.175 12.583L215.89 11.543C214.07 10.737 212.926 8.852 212.926 6.993Z" fill="black"/>
<g filter="url(#filter0_d_791_658)">
<circle cx="9" cy="9" r="5" fill="#3E3EFE"/>
</g>
<defs>
<filter id="filter0_d_791_658" x="0.5" y="0.5" width="17" height="17" filterUnits="userSpaceOnUse" color-interpolation-filters="sRGB">
<feFlood flood-opacity="0" result="BackgroundImageFix"/>
<feColorMatrix in="SourceAlpha" type="matrix" values="0 0 0 0 0 0 0 0 0 0 0 0 0 0 0 0 0 0 127 0" result="hardAlpha"/>
<feOffset/>
<feGaussianBlur stdDeviation="1.75"/>
<feComposite in2="hardAlpha" operator="out"/>
<feColorMatrix type="matrix" values="0 0 0 0 0.243137 0 0 0 0 0.243137 0 0 0 0 0.996078 0 0 0 1 0"/>
<feBlend mode="normal" in2="BackgroundImageFix" result="effect1_dropShadow_791_658"/>
<feBlend mode="normal" in="SourceGraphic" in2="effect1_dropShadow_791_658" result="shape"/>
</filter>
</defs>
</svg>
