<svg width="76" height="39" viewBox="0 0 76 39" fill="none" xmlns="http://www.w3.org/2000/svg">
<g clip-path="url(#clip0_318_11)">
<path d="M0 19.06C0 7.95 8.53 0 20 0C26.37 0 31.69 2.32 35.16 6.53L29.68 11.58C27.21 8.74 24.1 7.26 20.42 7.26C13.52 7.26 8.63 12.1 8.63 19.05C8.63 26 13.53 30.84 20.42 30.84C24.1 30.84 27.21 29.37 29.68 26.47L35.16 31.52C31.69 35.78 26.37 38.1 19.95 38.1C8.53 38.11 0 30.16 0 19.06Z" fill="#0000FF"/>
<path d="M75.68 19.06C75.68 7.95 67.15 0 55.68 0C49.31 0 43.99 2.32 40.52 6.53L46 11.58C48.47 8.74 51.58 7.26 55.27 7.26C62.17 7.26 67.06 12.1 67.06 19.05C67.06 26 62.16 30.84 55.27 30.84C51.58 30.84 48.48 29.37 46 26.47L40.52 31.52C43.99 35.78 49.31 38.1 55.73 38.1C67.15 38.1 75.68 30.15 75.68 19.04V19.06Z" fill="#FFDA00"/>
<path d="M58.67 17.6602H16.27V20.4502H58.67V17.6602Z" fill="black"/>
</g>
<defs>
<clipPath id="clip0_318_11">
<rect width="75.68" height="38.11" fill="white"/>
</clipPath>
</defs>
</svg>
