<svg width="24" height="24" viewBox="0 0 24 24" fill="none" xmlns="http://www.w3.org/2000/svg">
<path d="M11.9658 22C17.4729 22 21.9372 17.5228 21.9372 12C21.9372 6.47715 17.4729 2 11.9658 2C6.45875 2 1.99438 6.47715 1.99438 12C1.99438 17.5228 6.45875 22 11.9658 22Z" stroke="black" stroke-width="1.5" stroke-linecap="round" stroke-linejoin="round"/>
<path d="M16.9514 18.125V16.875C16.9514 16.212 16.6888 15.5761 16.2213 15.1072C15.7538 14.6384 15.1197 14.375 14.4586 14.375H9.47284C8.81169 14.375 8.17762 14.6384 7.71012 15.1072C7.24262 15.5761 6.97998 16.212 6.97998 16.875V18.125" stroke="black" stroke-width="1.5" stroke-linecap="round" stroke-linejoin="round"/>
<path d="M11.9655 11.875C13.3423 11.875 14.4584 10.7557 14.4584 9.375C14.4584 7.99429 13.3423 6.875 11.9655 6.875C10.5887 6.875 9.47266 7.99429 9.47266 9.375C9.47266 10.7557 10.5887 11.875 11.9655 11.875Z" stroke="black" stroke-width="1.5" stroke-linecap="round" stroke-linejoin="round"/>
</svg>
