<svg width="148" height="148" viewBox="0 0 148 148" fill="none" xmlns="http://www.w3.org/2000/svg">
<rect width="148" height="148" rx="5" fill="#F1F1F1"/>
<g clip-path="url(#clip0_526_2319)">
<path d="M63.9852 113.892L66.1385 112.167L65.767 122.357L77.648 123.787L75.2921 125.68L64.0866 124.368L69.1362 130.611L67.4136 132L57.196 119.344L58.9187 117.964L63.5968 123.754L63.9937 113.9L63.9852 113.892Z" fill="#58595B"/>
<path d="M77.1244 103.357L78.8555 101.969L84.6567 109.155C85.442 110.131 85.9655 110.922 86.2358 111.519C86.4975 112.125 86.6664 112.672 86.734 113.151C86.8015 113.639 86.8015 114.136 86.7255 114.624C86.4638 116.256 85.5687 117.687 84.0318 118.924C82.4612 120.186 80.8568 120.758 79.2186 120.665C78.7204 120.632 78.2306 120.531 77.7662 120.354C77.3017 120.186 76.812 119.908 76.2969 119.538C75.7818 119.168 75.1147 118.469 74.2871 117.451L68.4944 110.282L70.2255 108.894L76.0267 116.08C76.9893 117.274 77.7831 117.998 78.4164 118.25C79.0497 118.511 79.7506 118.57 80.5021 118.427C81.2537 118.284 81.9967 117.922 82.7145 117.35C83.7363 116.534 84.3442 115.583 84.53 114.506C84.6229 113.934 84.5807 113.379 84.3949 112.848C84.2091 112.318 83.7194 111.553 82.9172 110.56L77.1075 103.374L77.1244 103.357Z" fill="#58595B"/>
<path d="M90.1625 105.015L88.1781 105.225C86.9283 105.351 85.9234 105.309 85.1635 105.073C84.4035 104.838 83.7533 104.4 83.2213 103.736C82.4191 102.743 82.0897 101.666 82.2502 100.521C82.4022 99.3685 83.0102 98.3756 84.0573 97.5258C85.0621 96.718 86.2274 96.2804 87.5447 96.1963L89.1998 98.2578C87.6292 98.0727 86.3372 98.384 85.3323 99.1834C84.7666 99.6378 84.4204 100.143 84.2768 100.706C84.1333 101.27 84.2346 101.767 84.5808 102.196C84.8932 102.574 85.307 102.827 85.839 102.945C86.371 103.054 87.0803 103.062 87.9669 102.945L89.9429 102.709C92.1553 102.457 93.8357 103.037 94.9841 104.468C95.8032 105.486 96.1494 106.563 96.0143 107.724C95.8792 108.877 95.2966 109.87 94.2664 110.694C93.0757 111.645 91.6824 112.133 90.0865 112.15L88.2203 109.844C90.154 110.341 91.7331 110.097 92.9575 109.112C93.4979 108.683 93.8188 108.161 93.9286 107.556C94.0299 106.95 93.8864 106.411 93.5064 105.94C92.8899 105.166 91.7669 104.863 90.154 105.023L90.1625 105.015Z" fill="#58595B"/>
<path d="M89.3433 93.5544L91.0659 92.166L101.292 104.821L99.5693 106.201L89.3517 93.546L89.3433 93.5544Z" fill="#0C5DAB"/>
<path d="M92.6958 90.8369L102.753 82.7676L104.053 84.3831L99.8565 87.7489L108.791 98.8137L107.059 100.202L98.1255 89.1372L93.9962 92.4525L92.6958 90.8453V90.8369Z" fill="#0C5DAB"/>
<path d="M113.975 73.7972L115.588 72.5098L125.806 85.1649L124.075 86.5533L116.12 76.7001L116.373 84.5675L116.052 84.8199L108.351 82.9267L116.306 92.7715L114.583 94.1598L104.357 81.5047L105.987 80.192L114.195 82.1862L113.967 73.7972H113.975Z" fill="#009687"/>
<path d="M127.098 75.3879L125.113 75.5983C123.864 75.7329 122.859 75.6824 122.099 75.4552C121.339 75.2281 120.689 74.7737 120.157 74.109C119.354 73.1161 119.025 72.039 119.185 70.8947C119.337 69.7419 119.937 68.749 120.993 67.9076C121.997 67.0998 123.163 66.6539 124.48 66.5781L126.144 68.6312C124.564 68.4545 123.281 68.7659 122.276 69.5652C121.71 70.0196 121.364 70.5244 121.221 71.0882C121.077 71.652 121.178 72.1484 121.525 72.5691C121.829 72.9478 122.251 73.2002 122.783 73.3096C123.315 73.4274 124.024 73.4358 124.911 73.318L126.887 73.0824C129.099 72.83 130.788 73.4106 131.936 74.8326C132.755 75.8507 133.102 76.9362 132.967 78.0889C132.831 79.2417 132.249 80.2346 131.219 81.0592C130.028 82.01 128.635 82.498 127.039 82.5149L125.172 80.2093C127.106 80.7058 128.685 80.4618 129.91 79.4773C130.45 79.0482 130.771 78.5265 130.881 77.9206C130.982 77.3148 130.839 76.7763 130.459 76.3051C129.834 75.531 128.719 75.2281 127.098 75.3879Z" fill="#58595B"/>
<path d="M30.9005 67.8158L25.5891 61.4546L32.5218 55.6992C36.9382 52.0389 41.135 50.415 45.1291 50.8273C49.1232 51.2396 52.7121 53.3516 55.9124 57.1801L72.5814 77.1221C76.3475 81.6237 78.0026 85.7299 77.5297 89.4322C77.0737 93.1429 74.6333 96.8284 70.217 100.489L63.6727 105.916L58.4204 99.6304L65.4291 93.8077C67.6922 91.9313 68.7477 89.9034 68.6126 87.7073C68.4775 85.5196 67.7006 83.5843 66.3073 81.9098L62.2372 77.0379L48.9966 88.0186L43.6851 81.6574L56.9257 70.6767L50.4912 62.9776C48.6504 60.773 46.6491 59.6539 44.4705 59.595C42.2918 59.5445 39.8937 60.5122 37.2844 62.4979L30.9005 67.799V67.8158Z" fill="#0C5DAB"/>
<path d="M48.3209 113.488C46.9867 111.881 47.1978 109.508 48.8107 108.179C50.4151 106.841 52.8048 107.06 54.139 108.667C55.4732 110.266 55.2621 112.647 53.6492 113.976C52.0448 115.306 49.6636 115.096 48.3209 113.497V113.488Z" fill="#0C5DAB"/>
<path d="M33.3072 95.524C31.973 93.9253 32.1925 91.544 33.797 90.2145C35.4014 88.8851 37.7911 89.0954 39.1253 90.7026C40.4595 92.3013 40.2484 94.6826 38.6355 96.012C37.0311 97.3499 34.6414 97.1311 33.3072 95.524Z" fill="#0C5DAB"/>
<path d="M15.8781 74.6649C14.5355 73.0662 14.755 70.6849 16.3679 69.3555C17.9723 68.0176 20.362 68.2364 21.6962 69.8351C23.0389 71.4338 22.8193 73.8151 21.2149 75.1445C19.6105 76.474 17.2208 76.2636 15.8866 74.6565L15.8781 74.6649Z" fill="#0C5DAB"/>
<path d="M102.846 63.0281L108.157 69.3893L101.224 75.1447C96.8079 78.8049 92.6111 80.4289 88.6169 80.0166C84.6313 79.6127 81.034 77.4923 77.8421 73.6638L61.1731 53.7134C57.4154 49.2117 55.7604 45.1055 56.2248 41.3948C56.6808 37.6841 59.1212 33.9986 63.5375 30.3468L70.0818 24.9111L75.3341 31.1966L68.317 37.0109C66.0539 38.8873 64.9984 40.9152 65.1335 43.1113C65.277 45.2991 66.0455 47.2344 67.4472 48.9088L71.5173 53.7723L84.7579 42.7916L90.0694 49.1528L76.8288 60.1335L83.2633 67.8326C85.0957 70.0288 87.1054 71.1563 89.284 71.2152C91.4627 71.2657 93.8608 70.298 96.4701 68.3123L102.854 63.0112L102.846 63.0281Z" fill="#009687"/>
<path d="M85.4335 17.3633C86.7676 18.962 86.5481 21.3349 84.9437 22.6727C83.3393 24.0022 80.9495 23.7834 79.6154 22.1847C78.2812 20.586 78.4923 18.2047 80.1051 16.8753C81.718 15.5374 84.0993 15.7561 85.4335 17.3633Z" fill="#009687"/>
<path d="M100.439 35.32C101.773 36.9187 101.562 39.2915 99.9492 40.6294C98.3448 41.9589 95.9551 41.7485 94.6209 40.1414C93.2867 38.5426 93.5063 36.1614 95.1107 34.8319C96.7151 33.5025 99.1048 33.7212 100.439 35.32Z" fill="#009687"/>
<path d="M117.868 56.1787C119.21 57.7774 118.982 60.1587 117.378 61.4882C115.774 62.8176 113.392 62.6073 112.05 61.0001C110.707 59.4014 110.927 57.0201 112.531 55.6907C114.135 54.3528 116.525 54.5716 117.859 56.1787H117.868Z" fill="#009687"/>
</g>
<defs>
<clipPath id="clip0_526_2319">
<rect width="118" height="116" fill="white" transform="translate(15 16)"/>
</clipPath>
</defs>
</svg>
