<svg width="329" height="282" viewBox="0 0 329 282" fill="none" xmlns="http://www.w3.org/2000/svg">
<rect width="329" height="282" rx="5" fill="#EEEEEE"/>
<rect width="329" height="282" rx="5" fill="#F3F3F3"/>
<path d="M37.734 23.903H36.59V33.847H37.734V23.903ZM35.82 25.982V25.069H33.389V23.925H32.256V25.069H29.814V25.982H35.82ZM33.389 31.064V30.129C34.533 29.953 35.248 29.282 35.248 28.314C35.248 27.203 34.269 26.466 32.828 26.466C31.387 26.466 30.397 27.203 30.397 28.314C30.397 29.282 31.112 29.953 32.256 30.129V31.097C31.321 31.13 30.408 31.13 29.616 31.13L29.759 32.065C31.563 32.065 33.917 32.032 36.106 31.658L36.029 30.833C35.182 30.954 34.28 31.009 33.389 31.064ZM31.475 28.314C31.475 27.698 32.025 27.335 32.828 27.335C33.62 27.335 34.17 27.698 34.17 28.314C34.17 28.93 33.62 29.304 32.828 29.304C32.025 29.304 31.475 28.93 31.475 28.314ZM48.9201 28.787V27.852H47.3691V23.914H46.2361V33.847H47.3691V28.787H48.9201ZM43.1561 26.367V24.739H42.0231V26.367C42.0231 28.204 41.0661 30.085 39.5041 30.844L40.1971 31.757C41.3411 31.174 42.1661 30.019 42.5951 28.644C43.0241 29.975 43.8161 31.009 44.8831 31.57L45.5761 30.668C44.0911 29.942 43.1561 28.138 43.1561 26.367ZM54.8263 29.128V28.336H56.8943V29.766H58.0273V23.914H56.8943V25.443H54.8263V24.651H50.2283V29.128H54.8263ZM53.7263 25.553V28.226H51.3393V25.553H53.7263ZM54.8263 26.367H56.8943V27.412H54.8263V26.367ZM54.7163 30.041C52.6483 30.041 51.3723 30.745 51.3723 31.944C51.3723 33.143 52.6483 33.847 54.7163 33.847C56.7953 33.847 58.0713 33.143 58.0713 31.944C58.0713 30.745 56.7953 30.041 54.7163 30.041ZM54.7163 32.967C53.2973 32.967 52.5053 32.604 52.5053 31.944C52.5053 31.284 53.2973 30.932 54.7163 30.932C56.1353 30.932 56.9383 31.284 56.9383 31.944C56.9383 32.604 56.1353 32.967 54.7163 32.967Z" fill="#9E9E9E"/>
<path d="M36.656 57.477V60.007H37.789V54.903H36.656V56.564H34.643V57.477H36.656ZM34.83 59.842L35.424 58.962C33.939 58.467 33.081 57.323 33.081 56.058V55.222H31.948V56.058C31.948 57.422 31.079 58.676 29.528 59.171L30.111 60.062C31.299 59.655 32.102 58.874 32.542 57.818C32.971 58.742 33.73 59.479 34.83 59.842ZM38.13 63.835H32.465V62.988H37.789V60.48H31.321V61.36H36.667V62.152H31.343V64.726H38.13V63.835ZM47.8641 54.914H46.7311V60.403H47.8641V54.914ZM45.8291 59.919L45.6971 58.995C44.2561 59.226 43.0241 59.292 41.3081 59.292V58.192H44.7071V55.376H40.1641V56.3H43.5961V57.334H40.1861V60.216H41.0221C42.9251 60.216 44.2781 60.183 45.8291 59.919ZM46.7421 60.865V61.888H42.4851V60.865H41.3521V64.726H47.8641V60.865H46.7421ZM46.7421 62.779V63.813H42.4851V62.779H46.7421ZM57.9833 59.952V54.903H56.8503V59.952H57.9833ZM55.2003 57.477C55.2003 56.157 54.0893 55.233 52.5823 55.233C51.0973 55.233 49.9863 56.157 49.9863 57.477C49.9863 58.786 51.0973 59.71 52.5823 59.71C54.0893 59.71 55.2003 58.786 55.2003 57.477ZM51.0863 57.477C51.0863 56.685 51.7353 56.168 52.5823 56.168C53.4513 56.168 54.1003 56.685 54.1003 57.477C54.1003 58.269 53.4513 58.786 52.5823 58.786C51.7353 58.786 51.0863 58.269 51.0863 57.477ZM58.2803 63.835H52.6043V62.955H57.9833V60.403H51.4713V61.294H56.8613V62.119H51.4933V64.726H58.2803V63.835ZM69.1584 59.765V58.83H67.6074V54.914H66.4744V64.847H67.6074V59.765H69.1584ZM63.3944 57.796V56.839H65.4954V55.904H60.0944V56.839H62.2614V57.796C62.2614 59.435 61.2604 61.316 59.7314 62.053L60.3804 62.955C61.5354 62.394 62.4044 61.206 62.8444 59.82C63.2954 61.107 64.1424 62.174 65.2534 62.702L65.8804 61.811C64.3734 61.107 63.3944 59.325 63.3944 57.796Z" fill="#9E9E9E"/>
<path d="M111.111 65V63.726H107.783C107.367 63.726 106.938 63.804 106.535 63.908L108.979 61.438C109.941 60.476 110.942 59.449 110.942 57.993C110.942 56.251 109.616 55.289 108.004 55.289C106.223 55.289 105.027 56.316 104.78 58.032L106.21 58.292C106.132 57.265 106.899 56.511 107.926 56.511C109.772 56.511 109.694 58.331 109.044 59.501C108.706 60.034 108.29 60.476 107.848 60.918L104.611 64.168V65H111.111ZM119.115 60.203C119.115 57.993 118.322 55.289 115.605 55.289C112.927 55.289 112.108 57.915 112.108 60.203C112.108 62.491 112.927 65.104 115.605 65.104C118.283 65.104 119.115 62.491 119.115 60.203ZM117.633 60.203C117.633 61.542 117.399 63.908 115.605 63.908C113.824 63.908 113.577 61.542 113.577 60.203C113.577 58.864 113.811 56.498 115.605 56.498C117.399 56.498 117.633 58.864 117.633 60.203ZM121.542 58.552L123.102 57.239C123.089 57.46 123.089 57.681 123.089 57.889V63.752H121.087V65H126.326V63.752H124.519V55.367H123.349L120.749 57.59L121.542 58.552ZM134.746 62.569V61.451H133.42V55.38H132.081L127.466 61.529V62.569H132.172V65H133.42V62.569H134.746ZM132.172 61.451H129.013L132.237 57.018C132.198 57.356 132.172 57.655 132.172 57.941V61.451ZM144.025 58.981V62.933H145.364V54.262H144.025V55.692H140.905V56.758H144.025V57.915H140.905V58.981H144.025ZM142.335 60.879L142.205 59.787C140.58 60.086 139.163 60.164 137.642 60.177V55.068H136.303V61.282H137.213C138.955 61.282 140.528 61.191 142.335 60.879ZM145.663 64.688H139.085V62.166H137.746V65.78H145.663V64.688ZM156.954 65V63.726H153.626C153.21 63.726 152.781 63.804 152.378 63.908L154.822 61.438C155.784 60.476 156.785 59.449 156.785 57.993C156.785 56.251 155.459 55.289 153.847 55.289C152.066 55.289 150.87 56.316 150.623 58.032L152.053 58.292C151.975 57.265 152.742 56.511 153.769 56.511C155.615 56.511 155.537 58.331 154.887 59.501C154.549 60.034 154.133 60.476 153.691 60.918L150.454 64.168V65H156.954ZM166.635 59.774H164.425V60.606H166.635V61.113H167.974V54.262H166.635V59.774ZM161.994 57.98C163.736 57.98 164.906 57.304 164.906 56.225C164.906 55.146 163.736 54.47 161.994 54.47C160.226 54.47 159.069 55.146 159.069 56.225C159.069 57.304 160.226 57.98 161.994 57.98ZM161.994 55.367C162.995 55.367 163.645 55.666 163.645 56.225C163.645 56.784 162.995 57.083 161.994 57.083C160.954 57.083 160.33 56.784 160.33 56.225C160.33 55.666 160.954 55.367 161.994 55.367ZM161.253 59.475V61.152H162.605V59.423C163.697 59.371 164.802 59.28 165.894 59.124L165.803 58.279C163.307 58.526 160.486 58.552 158.224 58.552L158.38 59.514C159.264 59.514 160.213 59.514 161.253 59.475ZM168.312 64.948H161.305V64.09H167.974V61.529H159.953V62.452H166.648V63.232H159.979V65.897H168.312V64.948ZM174.507 58.552L176.067 57.239C176.054 57.46 176.054 57.681 176.054 57.889V63.752H174.052V65H179.291V63.752H177.484V55.367H176.314L173.714 57.59L174.507 58.552ZM187.308 65V63.726H183.98C183.564 63.726 183.135 63.804 182.732 63.908L185.176 61.438C186.138 60.476 187.139 59.449 187.139 57.993C187.139 56.251 185.813 55.289 184.201 55.289C182.42 55.289 181.224 56.316 180.977 58.032L182.407 58.292C182.329 57.265 183.096 56.511 184.123 56.511C185.969 56.511 185.891 58.331 185.241 59.501C184.903 60.034 184.487 60.476 184.045 60.918L180.808 64.168V65H187.308ZM198.276 60.216V54.249H196.937V60.216H198.276ZM194.987 57.291C194.987 55.731 193.674 54.639 191.893 54.639C190.138 54.639 188.825 55.731 188.825 57.291C188.825 58.838 190.138 59.93 191.893 59.93C193.674 59.93 194.987 58.838 194.987 57.291ZM190.125 57.291C190.125 56.355 190.892 55.744 191.893 55.744C192.92 55.744 193.687 56.355 193.687 57.291C193.687 58.227 192.92 58.838 191.893 58.838C190.892 58.838 190.125 58.227 190.125 57.291ZM198.627 64.805H191.919V63.765H198.276V60.749H190.58V61.802H196.95V62.777H190.606V65.858H198.627V64.805ZM211.856 57.291V60.281H213.195V54.249H211.856V56.212H209.477V57.291H211.856ZM209.698 60.086L210.4 59.046C208.645 58.461 207.631 57.109 207.631 55.614V54.626H206.292V55.614C206.292 57.226 205.265 58.708 203.432 59.293L204.121 60.346C205.525 59.865 206.474 58.942 206.994 57.694C207.501 58.786 208.398 59.657 209.698 60.086ZM213.598 64.805H206.903V63.804H213.195V60.84H205.551V61.88H211.869V62.816H205.577V65.858H213.598V64.805ZM225.102 54.262H223.763V60.749H225.102V54.262ZM222.697 60.177L222.541 59.085C220.838 59.358 219.382 59.436 217.354 59.436V58.136H221.371V54.808H216.002V55.9H220.058V57.122H216.028V60.528H217.016C219.265 60.528 220.864 60.489 222.697 60.177ZM223.776 61.295V62.504H218.745V61.295H217.406V65.858H225.102V61.295H223.776ZM223.776 63.557V64.779H218.745V63.557H223.776Z" fill="black"/>
<path d="M105.248 27.955L105.729 29.008C107.666 28.709 109.239 27.76 109.967 26.46C110.708 27.773 112.281 28.696 114.218 29.008L114.699 27.955C112.476 27.643 110.799 26.395 110.734 25.004H114.283V23.925H105.638V25.004H109.213C109.148 26.395 107.471 27.643 105.248 27.955ZM115.271 30.945L115.284 29.866H104.663V30.945H109.265V35.014H110.604V30.945H115.271ZM126.294 23.249H124.955V30.295H126.294V23.249ZM123.083 29.645L123.746 28.592C121.926 27.994 120.899 26.525 120.899 24.939V23.795H119.534V24.939C119.534 26.577 118.494 28.176 116.648 28.8L117.311 29.853C118.715 29.372 119.703 28.384 120.236 27.084C120.756 28.28 121.731 29.177 123.083 29.645ZM118.377 30.854V31.933H124.955V35.001H126.294V30.854H118.377ZM138.24 23.249H136.888V35.001H138.24V23.249ZM135.978 25.706V24.627H133.105V23.275H131.766V24.627H128.88V25.706H135.978ZM133.105 31.712V30.607C134.457 30.399 135.302 29.606 135.302 28.462C135.302 27.149 134.145 26.278 132.442 26.278C130.739 26.278 129.569 27.149 129.569 28.462C129.569 29.606 130.414 30.399 131.766 30.607V31.751C130.661 31.79 129.582 31.79 128.646 31.79L128.815 32.895C130.947 32.895 133.729 32.856 136.316 32.414L136.225 31.439C135.224 31.582 134.158 31.647 133.105 31.712ZM130.843 28.462C130.843 27.734 131.493 27.305 132.442 27.305C133.378 27.305 134.028 27.734 134.028 28.462C134.028 29.19 133.378 29.632 132.442 29.632C131.493 29.632 130.843 29.19 130.843 28.462ZM151.46 29.021V27.916H149.627V23.262H148.288V35.001H149.627V29.021H151.46ZM144.648 26.161V24.237H143.309V26.161C143.309 28.332 142.178 30.555 140.332 31.452L141.151 32.531C142.503 31.842 143.478 30.477 143.985 28.852C144.492 30.425 145.428 31.647 146.689 32.31L147.508 31.244C145.753 30.386 144.648 28.254 144.648 26.161ZM163.518 25.446V25.511C163.518 26.902 163.518 28.579 163.063 30.88L164.415 31.023C164.87 28.592 164.87 26.954 164.87 25.511V24.354H156.511V25.446H163.518ZM166.014 32.362H160.71V28.228H159.358V32.362H155.406V33.467H166.014V32.362ZM175.75 28.761H173.527V29.606H175.75V30.113H177.089V23.249H175.75V28.761ZM170.368 28.449V30.152H171.72V28.384C172.812 28.332 173.904 28.241 174.996 28.098L174.918 27.253C174.515 27.292 174.086 27.318 173.683 27.357C173.93 26.096 173.917 25.108 173.917 24.38V23.665H168.366V24.653H172.604C172.604 24.9 172.617 25.186 172.578 25.485L168.041 25.667L168.236 26.616L172.5 26.343C172.461 26.694 172.422 27.032 172.331 27.435C170.55 27.526 168.86 27.526 167.339 27.526L167.495 28.488C168.392 28.488 169.354 28.475 170.368 28.449ZM177.427 33.948H170.42V33.09H177.089V30.529H169.068V31.452H175.763V32.219H169.094V34.897H177.427V33.948ZM184.636 35.885L185.572 35.469C184.428 33.584 183.934 31.478 183.934 29.229C183.934 26.993 184.428 24.874 185.572 22.989L184.636 22.586C183.427 24.549 182.712 26.668 182.712 29.229C182.712 31.816 183.427 33.909 184.636 35.885ZM196.862 23.249H195.588V27.89H194.197V23.496H192.936V34.416H194.197V28.982H195.588V34.988H196.862V23.249ZM188.555 31.101V25.745H191.584V24.653H187.242V32.206H188.022C189.686 32.206 190.882 32.154 192.299 31.881L192.182 30.776C190.973 31.023 189.907 31.088 188.555 31.101ZM209.458 32.544H206.585V30.022H208.47V28.943H206.78V25.355H208.509V24.276H199.682V25.355H201.411V28.943H199.721V30.022H201.606V32.544H198.811V33.649H209.458V32.544ZM202.75 28.943V25.355H205.454V28.943H202.75ZM202.945 32.544V30.022H205.259V32.544H202.945ZM220.429 23.249H219.077V35.027H220.429V23.249ZM214.176 24.12C212.447 24.12 211.16 25.732 211.16 28.254C211.16 30.802 212.447 32.401 214.176 32.401C215.931 32.401 217.205 30.802 217.205 28.254C217.205 25.732 215.931 24.12 214.176 24.12ZM214.176 25.329C215.216 25.329 215.918 26.421 215.918 28.254C215.918 30.139 215.216 31.205 214.176 31.205C213.136 31.205 212.447 30.139 212.447 28.254C212.447 26.421 213.136 25.329 214.176 25.329ZM233.649 29.021V27.916H231.816V23.262H230.477V35.001H231.816V29.021H233.649ZM226.837 26.161V24.237H225.498V26.161C225.498 28.332 224.367 30.555 222.521 31.452L223.34 32.531C224.692 31.842 225.667 30.477 226.174 28.852C226.681 30.425 227.617 31.647 228.878 32.31L229.697 31.244C227.942 30.386 226.837 28.254 226.837 26.161ZM242.887 28.904C245.344 28.904 247.047 27.89 247.047 26.291C247.047 24.692 245.344 23.691 242.887 23.691C240.404 23.691 238.714 24.692 238.714 26.291C238.714 27.89 240.404 28.904 242.887 28.904ZM242.887 24.77C244.564 24.77 245.669 25.342 245.669 26.291C245.669 27.279 244.564 27.825 242.887 27.825C241.158 27.825 240.092 27.279 240.092 26.291C240.092 25.342 241.158 24.77 242.887 24.77ZM248.23 31.01V29.905H237.583V31.01H242.198V35.001H243.537V31.01H248.23ZM260.384 26.161H258.72V23.249H257.381V30.308H258.72V27.266H260.384V26.161ZM255.678 29.684L256.38 28.631C254.638 28.033 253.637 26.642 253.637 25.121V23.86H252.285V25.017C252.285 26.72 251.284 28.319 249.438 28.943L250.153 30.009C251.505 29.502 252.467 28.527 252.987 27.227C253.494 28.332 254.417 29.229 255.678 29.684ZM254.937 30.594C252.519 30.594 251.024 31.4 251.024 32.791C251.024 34.182 252.519 35.001 254.937 35.001C257.381 35.001 258.85 34.182 258.85 32.791C258.85 31.4 257.381 30.594 254.937 30.594ZM254.937 33.948C253.26 33.948 252.35 33.571 252.35 32.791C252.35 32.063 253.26 31.647 254.937 31.647C256.614 31.647 257.524 32.063 257.524 32.791C257.524 33.571 256.614 33.948 254.937 33.948ZM271.238 23.249L269.899 23.262V26.135H267.455V23.912H266.142V25.654H263.373V23.925H262.047V29.476H267.455V27.227H269.899V30.061H271.238V23.249ZM266.142 26.694V28.397H263.373V26.694H266.142ZM263.529 30.607V34.858H271.238V30.607H263.529ZM264.842 33.792V31.673H269.925V33.792H264.842ZM273.395 35.469L274.331 35.885C275.566 33.909 276.268 31.816 276.268 29.229C276.268 26.668 275.566 24.549 274.331 22.586L273.395 22.989C274.539 24.874 275.033 26.993 275.033 29.229C275.033 31.478 274.539 33.584 273.395 35.469Z" fill="black"/>
<path d="M30.056 88.885L30.463 89.776C32.102 89.523 33.433 88.72 34.049 87.62C34.676 88.731 36.007 89.512 37.646 89.776L38.053 88.885C36.172 88.621 34.753 87.565 34.698 86.388H37.701V85.475H30.386V86.388H33.411C33.356 87.565 31.937 88.621 30.056 88.885ZM38.537 91.415L38.548 90.502H29.561V91.415H33.455V94.858H34.588V91.415H38.537ZM48.6781 92.702H46.5551V90.117C47.3471 89.666 47.8201 88.962 47.8201 88.082C47.8201 86.498 46.2801 85.486 44.1681 85.486C42.0451 85.486 40.5161 86.498 40.5161 88.082C40.5161 88.962 40.9891 89.677 41.7811 90.117V92.702H39.6801V93.626H48.6781V92.702ZM44.1681 86.377C45.6641 86.377 46.7091 87.037 46.7091 88.082C46.7091 89.138 45.6641 89.798 44.1681 89.798C42.6611 89.798 41.6161 89.138 41.6161 88.082C41.6161 87.037 42.6611 86.377 44.1681 86.377ZM42.9141 92.702V90.546C43.2991 90.634 43.7171 90.678 44.1681 90.678C44.6081 90.678 45.0371 90.634 45.4221 90.535V92.702H42.9141ZM59.0393 89.787V88.852H57.4883V84.914H56.3553V94.847H57.4883V89.787H59.0393ZM53.2753 87.367V85.739H52.1423V87.367C52.1423 89.204 51.1853 91.085 49.6233 91.844L50.3163 92.757C51.4603 92.174 52.2853 91.019 52.7143 89.644C53.1433 90.975 53.9353 92.009 55.0023 92.57L55.6953 91.668C54.2103 90.942 53.2753 89.138 53.2753 87.367ZM68.1464 84.914H67.0134V87.202H65.1764C64.9674 86.091 63.9224 85.354 62.6464 85.354C61.1614 85.354 60.0504 86.311 60.0504 87.675C60.0504 89.05 61.1614 90.007 62.6464 90.007C63.9664 90.007 64.9674 89.237 65.1764 88.126H67.0134V90.238H68.1464V84.914ZM62.6464 89.072C61.7664 89.072 61.1394 88.511 61.1394 87.675C61.1394 86.828 61.7664 86.289 62.6464 86.289C63.5264 86.289 64.1424 86.828 64.1424 87.675C64.1424 88.511 63.4934 89.072 62.6464 89.072ZM67.0244 90.711V91.833H62.8114V90.711H61.6894V94.726H68.1464V90.711H67.0244ZM67.0244 92.713V93.813H62.8114V92.713H67.0244Z" fill="#9E9E9E"/>
<path d="M37.701 145.557L38.174 144.611C36.216 144.292 34.621 142.796 34.621 141.267V140.519H33.422V141.267C33.422 142.796 31.827 144.292 29.858 144.611L30.342 145.557C31.959 145.238 33.378 144.248 34.027 142.928C34.72 144.336 36.194 145.26 37.701 145.557ZM38.559 147.68H34.577V145.359H33.444V147.68H29.561V148.615H38.559V147.68ZM48.2051 139.903H47.1271V143.83H46.0381V140.09H44.9711V149.385H46.0381V144.765H47.1271V149.847H48.2051V139.903ZM42.7051 142.488V141.938H44.3661V141.003H39.8121V141.938H41.6051V142.488C41.6051 144.457 40.9781 146.173 39.5371 147.02L40.2301 147.867C41.2091 147.284 41.8471 146.294 42.1881 145.007C42.5511 146.107 43.1451 147.009 44.1131 147.526L44.7731 146.657C43.3321 145.898 42.7051 144.292 42.7051 142.488ZM57.9723 139.914H56.8283V149.847H57.9723V139.914ZM53.4623 142.785V141.839H55.6733V140.904H50.1073V141.839H52.3183V142.785C52.3183 144.468 51.2953 146.36 49.7553 147.053L50.4043 147.955C51.5703 147.405 52.4613 146.206 52.9013 144.831C53.3743 146.118 54.2543 147.185 55.4093 147.702L56.0363 146.811C54.4853 146.14 53.4623 144.446 53.4623 142.785Z" fill="#9E9E9E"/>
<path d="M114.413 138.236H113.061V142.097H110.552V143.189H113.061V150.014H114.413V138.236ZM108.914 141.148V139.211H107.562V141.148C107.562 143.345 106.418 145.607 104.585 146.504L105.43 147.57C106.782 146.881 107.731 145.529 108.251 143.852C108.758 145.425 109.681 146.712 111.033 147.375L111.826 146.296C110.019 145.464 108.914 143.319 108.914 141.148ZM121.926 142.435C124.617 142.435 126.112 141.72 126.112 140.407C126.112 139.094 124.617 138.379 121.926 138.379C119.222 138.379 117.74 139.094 117.74 140.407C117.74 141.72 119.222 142.435 121.926 142.435ZM121.926 139.38C123.759 139.38 124.721 139.731 124.721 140.407C124.721 141.083 123.759 141.434 121.926 141.434C120.093 141.434 119.131 141.083 119.131 140.407C119.131 139.731 120.093 139.38 121.926 139.38ZM122.589 144.138H127.23V143.072H116.609V144.138H121.237V145.087H117.87V146.101H124.591V146.946H117.896V149.897H126.242V148.87H119.222V147.895H125.904V145.087H122.589V144.138ZM138.006 143.475V142.448H131.259V141.499H137.642V140.498H131.259V139.588H137.928V138.561H129.92V143.475H138.006ZM139.189 144.411H128.555V145.49H139.189V144.411ZM129.751 146.452V147.531H136.511V150.014H137.85V146.452H129.751ZM146.481 143.943V143.02H148.912V144.346H150.264V138.262H148.912V139.848H146.481V138.782H145.168V140.316H142.399V138.782H141.073V143.943H146.481ZM146.481 140.875H148.912V141.98H146.481V140.875ZM145.168 141.343V142.877H142.399V141.343H145.168ZM150.654 148.805H143.959V147.804H150.264V144.866H142.62V145.919H148.938V146.816H142.633V149.858H150.654V148.805ZM162.158 138.249H160.806V150.027H162.158V138.249ZM156.828 141.161V139.237H155.489V141.161C155.489 143.41 154.267 145.685 152.395 146.517L153.188 147.635C154.605 146.946 155.645 145.581 156.178 143.852C156.711 145.477 157.738 146.738 159.09 147.375L159.87 146.309C158.024 145.477 156.828 143.332 156.828 141.161ZM177.999 143.111H176.374C176.673 141.707 176.673 140.68 176.673 139.744V138.834H168.704V139.926H175.36C175.36 140.81 175.334 141.798 175.035 143.111H167.365V144.203H177.999V143.111ZM168.652 145.62V149.858H176.673V145.62H168.652ZM169.965 148.792V146.686H175.36V148.792H169.965ZM187.709 141.785H185.551V142.89H187.709V146.998H189.048V138.275H187.709V141.785ZM185.655 145.464L186.305 144.411C184.485 143.852 183.458 142.487 183.458 141.044V140.823H185.928V139.744H183.471V138.327H182.119V139.744H179.649V140.823H182.119V141.044C182.119 142.604 181.105 144.008 179.298 144.632L179.961 145.672C181.326 145.217 182.301 144.281 182.821 143.085C183.341 144.19 184.303 145.048 185.655 145.464ZM189.347 148.688H182.782V146.244H181.443V149.78H189.347V148.688ZM201.904 145.1V143.995H200.266C200.565 142.331 200.565 141.109 200.565 140.004V138.977H192.557V140.056H199.252C199.252 141.135 199.265 142.37 198.914 143.995H191.283V145.1H195.872V150.001H197.224V145.1H201.904ZM217.017 144.008V142.89H215.236V138.249H213.897V149.988H215.236V144.008H217.017ZM212.168 139.497H206.721V140.589H210.829C210.556 143.28 208.983 145.36 206.136 146.829L206.877 147.856C210.712 145.919 212.168 142.903 212.168 139.497ZM228.937 141.772H227.273V138.249H225.934V146.907H227.273V142.877H228.937V141.772ZM224.348 145.074L225.024 144.008C223.256 143.384 222.229 141.928 222.229 140.355V138.977H220.877V140.342C220.877 142.058 219.863 143.657 217.991 144.281L218.719 145.321C220.123 144.814 221.072 143.839 221.579 142.539C222.099 143.683 223.048 144.619 224.348 145.074ZM221.202 148.688V146.075H219.863V149.78H227.741V148.688H221.202ZM239.726 138.249H238.374V150.027H239.726V138.249ZM232.121 146.036V140.446H236.385V139.341H230.795V147.154H231.77C234.201 147.154 235.722 147.089 237.425 146.777L237.282 145.659C235.709 145.971 234.305 146.036 232.121 146.036ZM251.685 138.262H250.333V150.001H251.685V138.262ZM246.355 141.655V140.537H248.968V139.432H242.39V140.537H245.003V141.655C245.003 143.644 243.794 145.88 241.974 146.699L242.741 147.765C244.119 147.115 245.172 145.698 245.692 144.073C246.251 145.594 247.291 146.855 248.656 147.466L249.397 146.413C247.564 145.62 246.355 143.618 246.355 141.655ZM262.357 141.928V144.541H263.709V138.249H262.357V140.862H260.329V141.928H262.357ZM260.511 143.917L260.407 142.851C259.016 143.098 257.807 143.124 255.883 143.124V142.032H259.562V141.018H255.883V140.004H259.9V138.951H254.544V144.177H255.428C257.651 144.177 258.951 144.164 260.511 143.917ZM264.099 148.857H257.404V147.908H263.709V145.022H256.065V146.062H262.383V146.946H256.078V149.897H264.099V148.857ZM267.335 142.552L268.895 141.239C268.882 141.46 268.882 141.681 268.882 141.889V147.752H266.88V149H272.119V147.752H270.312V139.367H269.142L266.542 141.59L267.335 142.552ZM284.322 147.518H279.655V145.516H283.321V144.437H276.288V142.799H283.061V139.081H274.949V140.16H281.735V141.733H274.975V145.516H278.316V147.518H273.688V148.623H284.322V147.518ZM289.946 142.552L291.506 141.239C291.493 141.46 291.493 141.681 291.493 141.889V147.752H289.491V149H294.73V147.752H292.923V139.367H291.753L289.153 141.59L289.946 142.552ZM301.811 139.393H300.03L297.404 142.903C296.806 143.709 296.26 144.736 296.26 145.763C296.26 147.804 297.521 149.104 299.51 149.104C301.369 149.104 302.864 147.791 302.864 145.919C302.864 144.255 301.759 143.046 300.017 143.046C299.51 143.046 299.003 143.176 298.561 143.423L301.811 139.393ZM299.484 147.921C298.288 147.921 297.638 147.115 297.638 145.997C297.638 144.931 298.444 144.138 299.536 144.138C300.68 144.138 301.434 144.879 301.434 146.023C301.434 147.154 300.563 147.921 299.484 147.921ZM304.862 146.985L304.121 148.025C304.277 148.168 304.446 148.298 304.654 148.428C305.265 148.883 306.123 149.104 306.864 149.104C308.918 149.104 310.387 147.739 310.387 145.711C310.387 143.813 309.061 142.799 307.306 142.799C306.89 142.799 306.448 142.851 306.032 142.942L306.422 140.706H310.075V139.393H305.421L304.641 143.982L305.525 144.229C306.006 144.086 306.5 143.982 307.007 143.982C308.203 143.982 308.957 144.606 308.957 145.789C308.957 146.972 308.216 147.882 306.955 147.882C306.188 147.882 305.408 147.505 304.862 146.985ZM106.054 162.552L107.614 161.239C107.601 161.46 107.601 161.681 107.601 161.889V167.752H105.599V169H110.838V167.752H109.031V159.367H107.861L105.261 161.59L106.054 162.552ZM113.603 166.062L112.342 166.582C112.862 168.324 113.889 169.117 115.644 169.117C117.425 169.117 118.894 168.038 118.894 166.205C118.894 164.996 118.244 164.268 117.1 163.943C118.205 163.592 118.686 162.864 118.686 161.759C118.686 160.134 117.295 159.289 115.839 159.289C114.058 159.289 112.875 160.342 112.628 162.045L114.045 162.292C113.967 161.265 114.773 160.511 115.761 160.511C116.71 160.511 117.295 161.083 117.295 162.006C117.295 163.28 116.216 163.566 115.137 163.566V164.606C116.307 164.606 117.464 164.775 117.464 166.244C117.464 167.245 116.606 167.895 115.631 167.895C114.643 167.895 113.72 167.05 113.603 166.062ZM126.859 164.203C126.859 161.993 126.066 159.289 123.349 159.289C120.671 159.289 119.852 161.915 119.852 164.203C119.852 166.491 120.671 169.104 123.349 169.104C126.027 169.104 126.859 166.491 126.859 164.203ZM125.377 164.203C125.377 165.542 125.143 167.908 123.349 167.908C121.568 167.908 121.321 165.542 121.321 164.203C121.321 162.864 121.555 160.498 123.349 160.498C125.143 160.498 125.377 162.864 125.377 164.203ZM129.286 162.552L130.846 161.239C130.833 161.46 130.833 161.681 130.833 161.889V167.752H128.831V169H134.07V167.752H132.263V159.367H131.093L128.493 161.59L129.286 162.552ZM145.728 160.94V159.861H141.607V158.418H140.268V159.861H136.121V160.94H145.728ZM146.274 167.622H141.607V166.114C143.648 165.958 144.831 165.165 144.831 163.865C144.831 162.448 143.323 161.616 140.918 161.616C138.526 161.616 137.018 162.448 137.018 163.865C137.018 165.165 138.227 165.971 140.268 166.114V167.622H135.627V168.727H146.274V167.622ZM138.383 163.865C138.383 163.085 139.293 162.656 140.918 162.656C142.543 162.656 143.466 163.085 143.466 163.865C143.466 164.645 142.543 165.087 140.918 165.087C139.293 165.087 138.383 164.645 138.383 163.865ZM147.69 167.349L147.196 170.053H148.392L149.224 167.349H147.69ZM154.69 162.552L156.25 161.239C156.237 161.46 156.237 161.681 156.237 161.889V167.752H154.235V169H159.474V167.752H157.667V159.367H156.497L153.897 161.59L154.69 162.552ZM167.751 164.203C167.751 161.993 166.958 159.289 164.241 159.289C161.563 159.289 160.744 161.915 160.744 164.203C160.744 166.491 161.563 169.104 164.241 169.104C166.919 169.104 167.751 166.491 167.751 164.203ZM166.269 164.203C166.269 165.542 166.035 167.908 164.241 167.908C162.46 167.908 162.213 165.542 162.213 164.203C162.213 162.864 162.447 160.498 164.241 160.498C166.035 160.498 166.269 162.864 166.269 164.203ZM175.495 164.203C175.495 161.993 174.702 159.289 171.985 159.289C169.307 159.289 168.488 161.915 168.488 164.203C168.488 166.491 169.307 169.104 171.985 169.104C174.663 169.104 175.495 166.491 175.495 164.203ZM174.013 164.203C174.013 165.542 173.779 167.908 171.985 167.908C170.204 167.908 169.957 165.542 169.957 164.203C169.957 162.864 170.191 160.498 171.985 160.498C173.779 160.498 174.013 162.864 174.013 164.203ZM177.922 162.552L179.482 161.239C179.469 161.46 179.469 161.681 179.469 161.889V167.752H177.467V169H182.706V167.752H180.899V159.367H179.729L177.129 161.59L177.922 162.552ZM194.363 160.94V159.861H190.242V158.418H188.903V159.861H184.756V160.94H194.363ZM194.909 167.622H190.242V166.114C192.283 165.958 193.466 165.165 193.466 163.865C193.466 162.448 191.958 161.616 189.553 161.616C187.161 161.616 185.653 162.448 185.653 163.865C185.653 165.165 186.862 165.971 188.903 166.114V167.622H184.262V168.727H194.909V167.622ZM187.018 163.865C187.018 163.085 187.928 162.656 189.553 162.656C191.178 162.656 192.101 163.085 192.101 163.865C192.101 164.645 191.178 165.087 189.553 165.087C187.928 165.087 187.018 164.645 187.018 163.865Z" fill="black"/>
<path d="M105.261 84.432V94H106.769V84.432H105.261ZM112.003 94.169C113.771 94.169 115.37 92.791 115.37 90.438C115.37 88.046 113.771 86.668 112.003 86.668C110.235 86.668 108.636 88.046 108.636 90.438C108.636 92.791 110.235 94.169 112.003 94.169ZM112.003 92.947C110.898 92.947 110.183 91.946 110.183 90.438C110.183 88.917 110.859 87.903 112.003 87.903C113.147 87.903 113.836 88.917 113.836 90.438C113.836 91.946 113.134 92.947 112.003 92.947ZM118.344 85.693V94H119.852V85.693H122.673V84.432H115.536V85.693H118.344ZM137.454 86.98H135.894V83.262H134.542V92.076H135.894V88.085H137.454V86.98ZM131.539 88.15L132.852 88.293C133.151 86.772 133.138 85.615 133.138 84.822V84.146H127.236V85.238H131.825C131.812 85.966 131.786 86.889 131.539 88.15ZM133.918 89.853L133.827 88.878C132.67 89.073 131.435 89.138 130.187 89.19V86.824H128.861V89.229C128.029 89.268 127.249 89.255 126.521 89.255L126.664 90.347C128.705 90.347 131.487 90.269 133.918 89.853ZM129.641 93.688V91.296H128.289V94.78H136.271V93.688H129.641ZM146.995 88.865V91.92H148.334V83.275H146.995V85.147H144.889V86.239H146.995V87.786H144.889V88.865H146.995ZM144.863 90.1L144.72 89.021C143.368 89.268 142.224 89.32 140.391 89.32V87.669H144.148V84.081H139.039V85.16H142.809V86.642H139.065V90.412H139.936C142.12 90.412 143.368 90.347 144.863 90.1ZM148.659 93.649H141.977V91.27H140.625V94.741H148.659V93.649ZM164.396 89.099V87.981H162.589V83.262H161.237V95.014H162.589V89.099H164.396ZM157.545 85.069V83.431H156.206V85.069H153.411V86.161H160.288V85.069H157.545ZM156.895 86.993C155.192 86.993 153.983 88.124 153.983 89.736C153.983 91.348 155.192 92.479 156.895 92.479C158.559 92.479 159.807 91.348 159.807 89.736C159.807 88.124 158.559 86.993 156.895 86.993ZM156.895 91.374C155.946 91.374 155.257 90.724 155.257 89.736C155.257 88.748 155.946 88.098 156.895 88.098C157.844 88.098 158.533 88.748 158.533 89.736C158.533 90.724 157.844 91.374 156.895 91.374ZM174.873 89.879V88.8H168.074V85.381H174.782V84.289H166.735V89.879H174.873ZM176.082 92.388H165.435V93.493H176.082V92.388ZM187.469 83.249H186.195V95.001H187.469V83.249ZM183.92 83.496V90.893H181.879V91.92H183.92V94.429H185.168V83.496H183.92ZM180.332 88.358C181.827 88.358 182.893 87.461 182.893 86.161C182.893 84.861 181.827 83.964 180.332 83.964C178.837 83.964 177.758 84.861 177.758 86.161C177.758 87.461 178.837 88.358 180.332 88.358ZM180.332 84.965C181.164 84.965 181.697 85.433 181.697 86.161C181.697 86.889 181.164 87.357 180.332 87.357C179.5 87.357 178.954 86.889 178.954 86.161C178.954 85.433 179.5 84.965 180.332 84.965ZM183.348 89.814L183.244 88.839C181.372 89.112 178.811 89.125 177.225 89.125L177.381 90.243C178.018 90.243 178.811 90.243 179.656 90.204V94.065H180.93V90.126C181.762 90.061 182.568 89.957 183.348 89.814ZM199.103 83.249H197.751V87.63H195.463C195.294 85.485 194.085 84.12 192.512 84.12C190.783 84.12 189.548 85.732 189.548 88.254C189.548 90.802 190.783 92.401 192.512 92.401C194.111 92.401 195.333 90.997 195.476 88.722H197.751V95.027H199.103V83.249ZM192.512 91.205C191.511 91.205 190.822 90.139 190.822 88.254C190.822 86.421 191.511 85.329 192.512 85.329C193.552 85.329 194.215 86.421 194.215 88.254C194.215 90.139 193.552 91.205 192.512 91.205ZM213.892 89.957V83.249H212.54V89.957H213.892ZM210.382 88.865V83.99H204.818V88.865H210.382ZM209.082 85.056V87.799H206.131V85.056H209.082ZM210.759 91.712H214.113V90.685H210.746V89.632H209.381V90.685H206.014V91.712H209.381C209.277 92.7 207.756 93.753 205.559 93.961L206.001 94.975C207.886 94.754 209.342 94.026 210.07 92.986C210.798 94.026 212.215 94.754 214.1 94.975L214.542 93.961C212.371 93.714 210.863 92.687 210.759 91.712ZM228.706 89.931L229.265 88.813C226.951 88.436 225.066 86.668 225.066 84.861V83.977H223.649V84.861C223.649 86.668 221.764 88.436 219.437 88.813L220.009 89.931C221.92 89.554 223.597 88.384 224.364 86.824C225.183 88.488 226.925 89.58 228.706 89.931ZM229.72 92.44H225.014V89.697H223.675V92.44H219.086V93.545H229.72V92.44ZM233.645 85.446V89.281H231.955V90.373H240.717V89.281H239.014V85.446H240.743V84.367H231.916V85.446H233.645ZM237.688 85.446V89.281H234.984V85.446H237.688ZM241.692 92.453H231.032V93.558H241.692V92.453ZM252.455 90.542V89.463H245.682V87.851H252.104V86.798H245.682V85.29H252.364V84.211H244.317V90.542H252.455ZM253.651 92.466H243.004V93.558H253.651V92.466ZM265.038 83.249H263.764V95.001H265.038V83.249ZM261.489 83.496V90.893H259.448V91.92H261.489V94.429H262.737V83.496H261.489ZM257.901 88.358C259.396 88.358 260.462 87.461 260.462 86.161C260.462 84.861 259.396 83.964 257.901 83.964C256.406 83.964 255.327 84.861 255.327 86.161C255.327 87.461 256.406 88.358 257.901 88.358ZM257.901 84.965C258.733 84.965 259.266 85.433 259.266 86.161C259.266 86.889 258.733 87.357 257.901 87.357C257.069 87.357 256.523 86.889 256.523 86.161C256.523 85.433 257.069 84.965 257.901 84.965ZM260.917 89.814L260.813 88.839C258.941 89.112 256.38 89.125 254.794 89.125L254.95 90.243C255.587 90.243 256.38 90.243 257.225 90.204V94.065H258.499V90.126C259.331 90.061 260.137 89.957 260.917 89.814ZM276.672 83.249H275.32V87.63H273.032C272.863 85.485 271.654 84.12 270.081 84.12C268.352 84.12 267.117 85.732 267.117 88.254C267.117 90.802 268.352 92.401 270.081 92.401C271.68 92.401 272.902 90.997 273.045 88.722H275.32V95.027H276.672V83.249ZM270.081 91.205C269.08 91.205 268.391 90.139 268.391 88.254C268.391 86.421 269.08 85.329 270.081 85.329C271.121 85.329 271.784 86.421 271.784 88.254C271.784 90.139 271.121 91.205 270.081 91.205ZM114.647 103.262H113.373V107.851H112.034V103.574H110.773V114.455H112.034V108.943H113.373V115.001H114.647V103.262ZM109.707 104.744H105.092V105.836H108.381C108.212 108.15 107.159 110.139 104.598 111.595L105.378 112.544C108.667 110.633 109.707 107.864 109.707 104.744ZM127.438 105.667H125.787V103.262H124.448V109.281H125.787V106.772H127.438V105.667ZM122.563 108.891V103.756H121.237V105.303H118.364V103.756H117.025V108.891H122.563ZM121.237 106.33V107.825H118.364V106.33H121.237ZM119.547 113.844V112.804H125.787V109.801H118.208V110.841H124.461V111.816H118.234V114.897H126.177V113.844H119.547ZM131.688 102.976L128.074 115.69H129.114L132.728 102.976H131.688ZM144.475 106.733H142.811V103.262H141.472V111.907H142.811V107.838H144.475V106.733ZM140.796 109.801L140.705 108.826C140.224 108.891 139.704 108.943 139.158 108.982V105.381H140.224V104.289H133.945V105.381H135.011V109.125C134.53 109.138 134.062 109.138 133.633 109.138L133.776 110.243C135.791 110.243 138.469 110.178 140.796 109.801ZM136.298 109.112V105.381H137.858V109.047C137.338 109.086 136.805 109.099 136.298 109.112ZM136.727 113.688V111.101H135.375V114.78H143.279V113.688H136.727ZM155.628 103.262H154.354V107.838H153.015V103.483H151.754V114.442H153.015V108.93H154.354V114.988H155.628V103.262ZM145.995 104.549V111.946H150.519V104.549H145.995ZM147.243 110.88V105.615H149.271V110.88H147.243Z" fill="black"/>
<path d="M37.734 191.903H36.59V201.869H37.734V191.903ZM32.443 192.64C30.98 192.64 29.891 194.004 29.891 196.138C29.891 198.294 30.98 199.647 32.443 199.647C33.928 199.647 35.006 198.294 35.006 196.138C35.006 194.004 33.928 192.64 32.443 192.64ZM32.443 193.663C33.323 193.663 33.917 194.587 33.917 196.138C33.917 197.733 33.323 198.635 32.443 198.635C31.563 198.635 30.98 197.733 30.98 196.138C30.98 194.587 31.563 193.663 32.443 193.663ZM48.1611 191.914H47.0831V201.836H48.1611V191.914ZM45.0921 192.101V195.599H43.8381V193.003H40.0101V199.262H43.8381V196.523H45.0921V201.374H46.1481V192.101H45.0921ZM42.7821 193.905V198.36H41.0661V193.905H42.7821ZM57.9833 196.952V191.903H56.8503V196.952H57.9833ZM55.2003 194.477C55.2003 193.157 54.0893 192.233 52.5823 192.233C51.0973 192.233 49.9863 193.157 49.9863 194.477C49.9863 195.786 51.0973 196.71 52.5823 196.71C54.0893 196.71 55.2003 195.786 55.2003 194.477ZM51.0863 194.477C51.0863 193.685 51.7353 193.168 52.5823 193.168C53.4513 193.168 54.1003 193.685 54.1003 194.477C54.1003 195.269 53.4513 195.786 52.5823 195.786C51.7353 195.786 51.0863 195.269 51.0863 194.477ZM58.2803 200.835H52.6043V199.955H57.9833V197.403H51.4713V198.294H56.8613V199.119H51.4933V201.726H58.2803V200.835Z" fill="#9E9E9E"/>
<path d="M108.446 202.169C110.058 202.169 111.527 200.752 111.527 198.308C111.527 196.111 110.5 194.668 108.693 194.668C107.913 194.668 107.172 195.071 106.561 195.604L106.6 194.382V191.639H105.118V202H106.288L106.431 201.259H106.47C107.081 201.844 107.783 202.169 108.446 202.169ZM108.16 200.934C107.705 200.934 107.159 200.765 106.6 200.284V196.787C107.185 196.202 107.744 195.916 108.303 195.916C109.499 195.916 109.98 196.813 109.98 198.334C109.98 200.011 109.2 200.934 108.16 200.934ZM114.633 191.821H113.099V193.433H114.633V191.821ZM113.112 202H114.594V194.85H113.112V202ZM116.008 201.194V202H121.533V200.804H117.893L121.416 195.643V194.85H116.398V196.046H119.531L116.008 201.194ZM127.906 204.34C128.907 204.34 129.843 204.093 130.714 203.612L130.337 202.754C129.7 203.118 128.868 203.378 128.023 203.378C125.579 203.378 123.694 201.844 123.694 198.984C123.694 195.604 126.19 193.407 128.764 193.407C131.494 193.407 132.794 195.175 132.794 197.463C132.794 199.257 131.793 200.349 130.896 200.349C130.116 200.349 129.882 199.868 130.142 198.776L130.753 195.773H129.791L129.609 196.371H129.583C129.323 195.864 128.933 195.656 128.426 195.656C126.723 195.656 125.566 197.489 125.566 199.101C125.566 200.453 126.346 201.207 127.386 201.207C128.01 201.207 128.699 200.791 129.154 200.219H129.193C129.297 200.947 129.921 201.324 130.753 201.324C132.157 201.324 133.808 199.998 133.808 197.411C133.808 194.473 131.897 192.445 128.881 192.445C125.501 192.445 122.628 195.058 122.628 199.023C122.628 202.52 125.02 204.34 127.906 204.34ZM127.685 200.232C127.126 200.232 126.736 199.868 126.736 199.023C126.736 197.983 127.399 196.657 128.452 196.657C128.816 196.657 129.063 196.8 129.31 197.203L128.92 199.426C128.452 199.998 128.062 200.232 127.685 200.232ZM138.094 205.211C140.395 205.211 141.838 204.106 141.838 202.715C141.838 201.467 140.993 200.973 139.264 200.973H137.951C137.028 200.973 136.755 200.7 136.755 200.271C136.755 199.92 136.898 199.725 137.145 199.517C137.509 199.66 137.847 199.738 138.146 199.738C139.641 199.738 140.824 198.841 140.824 197.281C140.824 196.722 140.629 196.267 140.356 195.968H141.721V194.85H139.186C138.913 194.746 138.549 194.668 138.146 194.668C136.664 194.668 135.377 195.63 135.377 197.242C135.377 198.087 135.832 198.763 136.313 199.14V199.192C135.91 199.491 135.52 199.959 135.52 200.518C135.52 201.103 135.806 201.48 136.17 201.701V201.766C135.507 202.169 135.13 202.715 135.13 203.326C135.13 204.574 136.378 205.211 138.094 205.211ZM138.146 198.776C137.405 198.776 136.794 198.191 136.794 197.242C136.794 196.254 137.366 195.721 138.146 195.721C138.926 195.721 139.498 196.254 139.498 197.242C139.498 198.191 138.887 198.776 138.146 198.776ZM138.315 204.223C137.119 204.223 136.404 203.833 136.404 203.105C136.404 202.741 136.586 202.377 137.015 202.065C137.34 202.13 137.652 202.169 137.977 202.169H139.056C139.94 202.169 140.395 202.338 140.395 202.949C140.395 203.625 139.563 204.223 138.315 204.223ZM145.823 202.169C147.591 202.169 149.19 200.791 149.19 198.438C149.19 196.046 147.591 194.668 145.823 194.668C144.055 194.668 142.456 196.046 142.456 198.438C142.456 200.791 144.055 202.169 145.823 202.169ZM145.823 200.947C144.718 200.947 144.003 199.946 144.003 198.438C144.003 196.917 144.679 195.903 145.823 195.903C146.967 195.903 147.656 196.917 147.656 198.438C147.656 199.946 146.954 200.947 145.823 200.947ZM155.394 202.468V204.899H156.889V194.85H155.706L155.576 195.539H155.524C154.913 194.967 154.367 194.668 153.535 194.668C151.936 194.668 150.467 196.098 150.467 198.438C150.467 200.843 151.585 202.169 153.418 202.169C154.198 202.169 154.9 201.766 155.459 201.233L155.394 202.468ZM153.769 200.934C152.625 200.934 152.014 200.037 152.014 198.412C152.014 196.865 152.82 195.916 153.821 195.916C154.354 195.916 154.861 196.085 155.394 196.566V200.063C154.887 200.648 154.354 200.934 153.769 200.934ZM161.217 202.169C162.205 202.169 162.894 201.701 163.557 200.921H163.596L163.713 202H164.935V194.85H163.44V199.816C162.855 200.557 162.387 200.882 161.724 200.882C160.879 200.882 160.528 200.414 160.528 199.166V194.85H159.033V199.348C159.033 201.181 159.696 202.169 161.217 202.169ZM168.875 202.169C169.759 202.169 170.487 201.779 171.15 201.22H171.189L171.319 202H172.541V197.697C172.541 195.76 171.722 194.668 169.941 194.668C168.797 194.668 167.822 195.084 167.081 195.552L167.523 196.644C168.134 196.241 168.901 195.89 169.681 195.89C170.734 195.89 171.046 196.605 171.046 197.45C169.577 197.554 168.498 197.671 167.77 198.074C167.029 198.529 166.769 199.309 166.769 200.102C166.769 201.363 167.64 202.169 168.875 202.169ZM169.33 200.986C168.693 200.986 168.212 200.726 168.212 199.998C168.212 199.699 168.16 199.361 168.537 199.01C168.992 198.594 169.668 198.594 171.046 198.425V200.193C170.461 200.726 169.954 200.986 169.33 200.986ZM174.585 191.652V202H176.067V191.652H174.585ZM179.206 202.169V200.557H177.672V202.169H179.206ZM184.418 202.169C185.25 202.169 186.069 201.87 186.732 201.285L186.121 200.297C185.692 200.661 185.172 200.947 184.561 200.947C183.365 200.947 182.546 199.946 182.546 198.438C182.546 196.917 183.417 195.903 184.6 195.903C185.107 195.903 185.484 196.111 185.887 196.462L186.628 195.487C186.108 195.032 185.471 194.668 184.535 194.668C182.65 194.668 180.999 196.046 180.999 198.438C180.999 200.791 182.481 202.169 184.418 202.169ZM190.739 202.169C192.507 202.169 194.106 200.791 194.106 198.438C194.106 196.046 192.507 194.668 190.739 194.668C188.971 194.668 187.372 196.046 187.372 198.438C187.372 200.791 188.971 202.169 190.739 202.169ZM190.739 200.947C189.634 200.947 188.919 199.946 188.919 198.438C188.919 196.917 189.595 195.903 190.739 195.903C191.883 195.903 192.572 196.917 192.572 198.438C192.572 199.946 191.87 200.947 190.739 200.947ZM195.864 194.85V202H197.346V196.93C197.944 196.28 198.477 195.955 198.958 195.955C199.79 195.955 200.154 196.436 200.154 197.684V202H201.649V196.93C202.247 196.28 202.78 195.955 203.261 195.955C204.093 195.955 204.457 196.436 204.457 197.684V202H205.952V197.502C205.952 195.669 205.276 194.668 203.755 194.668C202.858 194.668 202.156 195.201 201.428 195.981C201.116 195.149 200.544 194.668 199.452 194.668C198.568 194.668 197.853 195.188 197.242 195.851H197.203L197.086 194.85H195.864Z" fill="black"/>
<path d="M38.02 222.903H36.942V229.041H38.02V222.903ZM35.105 227.809H33.488V228.579H35.105V229.019H36.172V223.101H35.105V227.809ZM32.124 226.214C33.433 226.214 34.291 225.653 34.291 224.729C34.291 223.838 33.422 223.255 32.124 223.255C30.848 223.255 29.957 223.838 29.957 224.729C29.957 225.642 30.848 226.214 32.124 226.214ZM32.124 224.047C32.828 224.047 33.279 224.3 33.279 224.729C33.279 225.169 32.828 225.422 32.124 225.422C31.42 225.422 30.98 225.169 30.98 224.729C30.98 224.3 31.42 224.047 32.124 224.047ZM31.618 227.523V229.008H32.707V227.457C33.411 227.413 34.082 227.314 34.698 227.182L34.632 226.412C33.004 226.676 30.848 226.698 29.495 226.698L29.605 227.567C30.166 227.567 30.859 227.556 31.618 227.523ZM36.898 229.393V230.196H32.3V229.393H31.178V232.726H38.02V229.393H36.898ZM36.898 231.054V231.835H32.3V231.054H36.898ZM48.9201 227.787V226.852H47.3691V222.914H46.2361V232.847H47.3691V227.787H48.9201ZM43.1561 225.367V223.739H42.0231V225.367C42.0231 227.204 41.0661 229.085 39.5041 229.844L40.1971 230.757C41.3411 230.174 42.1661 229.019 42.5951 227.644C43.0241 228.975 43.8161 230.009 44.8831 230.57L45.5761 229.668C44.0911 228.942 43.1561 227.138 43.1561 225.367ZM57.9723 222.903H56.8283V232.869H57.9723V222.903ZM52.6813 223.64C51.2183 223.64 50.1293 225.004 50.1293 227.138C50.1293 229.294 51.2183 230.647 52.6813 230.647C54.1663 230.647 55.2443 229.294 55.2443 227.138C55.2443 225.004 54.1663 223.64 52.6813 223.64ZM52.6813 224.663C53.5613 224.663 54.1553 225.587 54.1553 227.138C54.1553 228.733 53.5613 229.635 52.6813 229.635C51.8013 229.635 51.2183 228.733 51.2183 227.138C51.2183 225.587 51.8013 224.663 52.6813 224.663ZM67.9154 229.074V228.161H62.1844V226.797H67.6184V225.906H62.1844V224.63H67.8384V223.717H61.0294V229.074H67.9154ZM68.9274 230.702H59.9184V231.626H68.9274V230.702Z" fill="#9E9E9E"/>
<path d="M104.351 224.85L106.288 232H108.017L108.888 228.477C109.083 227.801 109.2 227.138 109.343 226.397H109.408C109.564 227.138 109.694 227.788 109.863 228.464L110.773 232H112.567L114.413 224.85H113.009L112.086 228.724C111.93 229.413 111.813 230.076 111.67 230.752H111.618C111.449 230.076 111.306 229.413 111.137 228.724L110.11 224.85H108.719L107.718 228.724C107.549 229.4 107.406 230.076 107.25 230.752H107.198C107.055 230.076 106.951 229.413 106.808 228.724L105.859 224.85H104.351ZM115.117 224.85L117.054 232H118.783L119.654 228.477C119.849 227.801 119.966 227.138 120.109 226.397H120.174C120.33 227.138 120.46 227.788 120.629 228.464L121.539 232H123.333L125.179 224.85H123.775L122.852 228.724C122.696 229.413 122.579 230.076 122.436 230.752H122.384C122.215 230.076 122.072 229.413 121.903 228.724L120.876 224.85H119.485L118.484 228.724C118.315 229.4 118.172 230.076 118.016 230.752H117.964C117.821 230.076 117.717 229.413 117.574 228.724L116.625 224.85H115.117ZM125.882 224.85L127.819 232H129.548L130.419 228.477C130.614 227.801 130.731 227.138 130.874 226.397H130.939C131.095 227.138 131.225 227.788 131.394 228.464L132.304 232H134.098L135.944 224.85H134.54L133.617 228.724C133.461 229.413 133.344 230.076 133.201 230.752H133.149C132.98 230.076 132.837 229.413 132.668 228.724L131.641 224.85H130.25L129.249 228.724C129.08 229.4 128.937 230.076 128.781 230.752H128.729C128.586 230.076 128.482 229.413 128.339 228.724L127.39 224.85H125.882ZM137.616 232.169V230.557H136.082V232.169H137.616ZM142.512 235.211C144.813 235.211 146.256 234.106 146.256 232.715C146.256 231.467 145.411 230.973 143.682 230.973H142.369C141.446 230.973 141.173 230.7 141.173 230.271C141.173 229.92 141.316 229.725 141.563 229.517C141.927 229.66 142.265 229.738 142.564 229.738C144.059 229.738 145.242 228.841 145.242 227.281C145.242 226.722 145.047 226.267 144.774 225.968H146.139V224.85H143.604C143.331 224.746 142.967 224.668 142.564 224.668C141.082 224.668 139.795 225.63 139.795 227.242C139.795 228.087 140.25 228.763 140.731 229.14V229.192C140.328 229.491 139.938 229.959 139.938 230.518C139.938 231.103 140.224 231.48 140.588 231.701V231.766C139.925 232.169 139.548 232.715 139.548 233.326C139.548 234.574 140.796 235.211 142.512 235.211ZM142.564 228.776C141.823 228.776 141.212 228.191 141.212 227.242C141.212 226.254 141.784 225.721 142.564 225.721C143.344 225.721 143.916 226.254 143.916 227.242C143.916 228.191 143.305 228.776 142.564 228.776ZM142.733 234.223C141.537 234.223 140.822 233.833 140.822 233.105C140.822 232.741 141.004 232.377 141.433 232.065C141.758 232.13 142.07 232.169 142.395 232.169H143.474C144.358 232.169 144.813 232.338 144.813 232.949C144.813 233.625 143.981 234.223 142.733 234.223ZM150.241 232.169C152.009 232.169 153.608 230.791 153.608 228.438C153.608 226.046 152.009 224.668 150.241 224.668C148.473 224.668 146.874 226.046 146.874 228.438C146.874 230.791 148.473 232.169 150.241 232.169ZM150.241 230.947C149.136 230.947 148.421 229.946 148.421 228.438C148.421 226.917 149.097 225.903 150.241 225.903C151.385 225.903 152.074 226.917 152.074 228.438C152.074 229.946 151.372 230.947 150.241 230.947ZM159.812 232.468V234.899H161.307V224.85H160.124L159.994 225.539H159.942C159.331 224.967 158.785 224.668 157.953 224.668C156.354 224.668 154.885 226.098 154.885 228.438C154.885 230.843 156.003 232.169 157.836 232.169C158.616 232.169 159.318 231.766 159.877 231.233L159.812 232.468ZM158.187 230.934C157.043 230.934 156.432 230.037 156.432 228.412C156.432 226.865 157.238 225.916 158.239 225.916C158.772 225.916 159.279 226.085 159.812 226.566V230.063C159.305 230.648 158.772 230.934 158.187 230.934ZM165.635 232.169C166.623 232.169 167.312 231.701 167.975 230.921H168.014L168.131 232H169.353V224.85H167.858V229.816C167.273 230.557 166.805 230.882 166.142 230.882C165.297 230.882 164.946 230.414 164.946 229.166V224.85H163.451V229.348C163.451 231.181 164.114 232.169 165.635 232.169ZM173.293 232.169C174.177 232.169 174.905 231.779 175.568 231.22H175.607L175.737 232H176.959V227.697C176.959 225.76 176.14 224.668 174.359 224.668C173.215 224.668 172.24 225.084 171.499 225.552L171.941 226.644C172.552 226.241 173.319 225.89 174.099 225.89C175.152 225.89 175.464 226.605 175.464 227.45C173.995 227.554 172.916 227.671 172.188 228.074C171.447 228.529 171.187 229.309 171.187 230.102C171.187 231.363 172.058 232.169 173.293 232.169ZM173.748 230.986C173.111 230.986 172.63 230.726 172.63 229.998C172.63 229.699 172.578 229.361 172.955 229.01C173.41 228.594 174.086 228.594 175.464 228.425V230.193C174.879 230.726 174.372 230.986 173.748 230.986ZM179.003 221.652V232H180.485V221.652H179.003ZM183.624 232.169V230.557H182.09V232.169H183.624ZM188.836 232.169C189.668 232.169 190.487 231.87 191.15 231.285L190.539 230.297C190.11 230.661 189.59 230.947 188.979 230.947C187.783 230.947 186.964 229.946 186.964 228.438C186.964 226.917 187.835 225.903 189.018 225.903C189.525 225.903 189.902 226.111 190.305 226.462L191.046 225.487C190.526 225.032 189.889 224.668 188.953 224.668C187.068 224.668 185.417 226.046 185.417 228.438C185.417 230.791 186.899 232.169 188.836 232.169ZM195.157 232.169C196.925 232.169 198.524 230.791 198.524 228.438C198.524 226.046 196.925 224.668 195.157 224.668C193.389 224.668 191.79 226.046 191.79 228.438C191.79 230.791 193.389 232.169 195.157 232.169ZM195.157 230.947C194.052 230.947 193.337 229.946 193.337 228.438C193.337 226.917 194.013 225.903 195.157 225.903C196.301 225.903 196.99 226.917 196.99 228.438C196.99 229.946 196.288 230.947 195.157 230.947ZM200.282 224.85V232H201.764V226.93C202.362 226.28 202.895 225.955 203.376 225.955C204.208 225.955 204.572 226.436 204.572 227.684V232H206.067V226.93C206.665 226.28 207.198 225.955 207.679 225.955C208.511 225.955 208.875 226.436 208.875 227.684V232H210.37V227.502C210.37 225.669 209.694 224.668 208.173 224.668C207.276 224.668 206.574 225.201 205.846 225.981C205.534 225.149 204.962 224.668 203.87 224.668C202.986 224.668 202.271 225.188 201.66 225.851H201.621L201.504 224.85H200.282ZM104.351 250.85L106.288 258H108.017L108.888 254.477C109.083 253.801 109.2 253.138 109.343 252.397H109.408C109.564 253.138 109.694 253.788 109.863 254.464L110.773 258H112.567L114.413 250.85H113.009L112.086 254.724C111.93 255.413 111.813 256.076 111.67 256.752H111.618C111.449 256.076 111.306 255.413 111.137 254.724L110.11 250.85H108.719L107.718 254.724C107.549 255.4 107.406 256.076 107.25 256.752H107.198C107.055 256.076 106.951 255.413 106.808 254.724L105.859 250.85H104.351ZM115.117 250.85L117.054 258H118.783L119.654 254.477C119.849 253.801 119.966 253.138 120.109 252.397H120.174C120.33 253.138 120.46 253.788 120.629 254.464L121.539 258H123.333L125.179 250.85H123.775L122.852 254.724C122.696 255.413 122.579 256.076 122.436 256.752H122.384C122.215 256.076 122.072 255.413 121.903 254.724L120.876 250.85H119.485L118.484 254.724C118.315 255.4 118.172 256.076 118.016 256.752H117.964C117.821 256.076 117.717 255.413 117.574 254.724L116.625 250.85H115.117ZM125.882 250.85L127.819 258H129.548L130.419 254.477C130.614 253.801 130.731 253.138 130.874 252.397H130.939C131.095 253.138 131.225 253.788 131.394 254.464L132.304 258H134.098L135.944 250.85H134.54L133.617 254.724C133.461 255.413 133.344 256.076 133.201 256.752H133.149C132.98 256.076 132.837 255.413 132.668 254.724L131.641 250.85H130.25L129.249 254.724C129.08 255.4 128.937 256.076 128.781 256.752H128.729C128.586 256.076 128.482 255.413 128.339 254.724L127.39 250.85H125.882ZM137.616 258.169V256.557H136.082V258.169H137.616ZM140.081 247.639V258H141.563V252.93C142.2 252.293 142.655 251.955 143.318 251.955C144.163 251.955 144.527 252.436 144.527 253.684V258H146.022V253.502C146.022 251.669 145.346 250.668 143.825 250.668C142.837 250.668 142.135 251.188 141.511 251.799L141.563 250.382V247.639H140.081ZM151.119 258.169C152.055 258.169 152.874 257.87 153.537 257.415L153.017 256.466C152.497 256.817 151.951 256.999 151.314 256.999C150.066 256.999 149.221 256.18 149.104 254.815H153.745C153.784 254.62 153.81 254.373 153.81 254.061C153.81 252.033 152.796 250.668 150.898 250.668C149.221 250.668 147.635 252.098 147.635 254.438C147.635 256.791 149.182 258.169 151.119 258.169ZM152.523 253.788H149.091C149.234 252.54 150.04 251.838 150.924 251.838C151.964 251.838 152.523 252.54 152.523 253.788ZM157.027 247.821H155.493V249.433H157.027V247.821ZM153.738 260.886L154.843 261.081C156.429 261.081 157.001 260.028 157.001 258.533V250.85H155.506V258.559C155.506 259.404 155.324 259.885 154.648 259.885C154.427 259.885 154.206 259.82 154.011 259.768L153.738 260.886ZM160.036 258.169V256.557H158.502V258.169H160.036ZM162.41 247.652V258H163.892V247.652H162.41ZM167.382 247.821H165.848V249.433H167.382V247.821ZM165.861 258H167.343V250.85H165.861V258ZM172.878 248.835L173.177 247.717C172.852 247.574 172.397 247.47 171.916 247.47C170.317 247.47 169.654 248.484 169.654 249.953V250.85L168.679 250.928V252.046H169.654V258H171.149V252.046H172.592V250.85H171.149V249.94C171.149 249.082 171.461 248.653 172.098 248.653C172.306 248.653 172.566 248.718 172.878 248.835ZM176.713 258.169C177.649 258.169 178.468 257.87 179.131 257.415L178.611 256.466C178.091 256.817 177.545 256.999 176.908 256.999C175.66 256.999 174.815 256.18 174.698 254.815H179.339C179.378 254.62 179.404 254.373 179.404 254.061C179.404 252.033 178.39 250.668 176.492 250.668C174.815 250.668 173.229 252.098 173.229 254.438C173.229 256.791 174.776 258.169 176.713 258.169ZM178.117 253.788H174.685C174.828 252.54 175.634 251.838 176.518 251.838C177.558 251.838 178.117 252.54 178.117 253.788Z" fill="#F27953"/>
<path d="M104 233.95H211.397V234.6H104V233.95ZM104 259.95H179.963V260.6H104V259.95Z" fill="#F27953"/>
</svg>
