<svg width="24" height="24" viewBox="0 0 24 24" fill="none" xmlns="http://www.w3.org/2000/svg">
<path d="M11.9656 22C17.4726 22 21.937 17.5228 21.937 12C21.937 6.47715 17.4726 2 11.9656 2C6.4585 2 1.99414 6.47715 1.99414 12C1.99414 17.5228 6.4585 22 11.9656 22Z" stroke="white" stroke-width="1.5" stroke-linecap="round" stroke-linejoin="round"/>
<path d="M16.9514 18.125V16.875C16.9514 16.212 16.6888 15.5761 16.2213 15.1072C15.7538 14.6384 15.1197 14.375 14.4586 14.375H9.47284C8.81169 14.375 8.17762 14.6384 7.71012 15.1072C7.24262 15.5761 6.97998 16.212 6.97998 16.875V18.125" stroke="white" stroke-width="1.5" stroke-linecap="round" stroke-linejoin="round"/>
<path d="M11.966 11.875C13.3428 11.875 14.4589 10.7557 14.4589 9.375C14.4589 7.99429 13.3428 6.875 11.966 6.875C10.5892 6.875 9.47314 7.99429 9.47314 9.375C9.47314 10.7557 10.5892 11.875 11.966 11.875Z" stroke="white" stroke-width="1.5" stroke-linecap="round" stroke-linejoin="round"/>
</svg>
